<svg width="113" height="112" viewBox="0 0 113 112" fill="none" xmlns="http://www.w3.org/2000/svg">
<g filter="url(#filter0_d_5_703)">
<circle cx="56.5" cy="56.0005" r="50" fill="white" stroke="#6F6F6F"/>
<path d="M49.2094 103.082C49.1893 103.666 49.1607 104.266 49.1243 104.879C48.6272 104.786 48.1339 104.681 47.6407 104.565C47.3215 104.488 46.9979 104.412 46.6782 104.327C46.5814 104.303 46.4761 104.275 46.3709 104.247C46.2819 104.227 46.1889 104.203 46.0959 104.178C46.0674 104.17 46.031 104.154 45.9991 104.15C45.8412 104.106 45.6917 104.065 45.5299 104.017C45.4857 104.005 45.4409 103.988 45.3967 103.981C45.2148 103.928 45.0412 103.876 44.8592 103.819H44.8553C44.1924 103.614 43.529 103.396 42.8745 103.163C42.8056 103.139 42.7412 103.114 42.6802 103.094C42.6315 103.078 42.5833 103.058 42.5346 103.041C41.7827 102.764 41.0308 102.465 40.2867 102.143C40.2828 102.143 40.2789 102.139 40.2744 102.139C40.355 101.096 40.4401 100.052 40.5207 99.0046C40.565 98.4968 40.6058 97.9852 40.6422 97.4735C40.6865 96.9094 40.7273 96.3453 40.7677 95.7812L41.164 95.7086L41.706 95.6037L42.2883 95.4949L42.6645 95.4263L43.9461 95.1847L44.0188 95.1724L45.2114 94.947L47.2325 94.5682L47.564 94.5079C47.6244 94.5079 49.0762 94.1212 49.1366 94.1212C49.1809 94.3065 49.2699 95.7527 49.2901 97.9327C49.3024 99.3751 49.2861 101.144 49.2094 103.082Z" fill="#EF7950"/>
<path fill-rule="evenodd" clip-rule="evenodd" d="M50.3194 95.5658C50.4739 95.9045 50.517 96.3129 50.4112 96.723C50.1867 97.5951 49.3777 98.1431 48.6034 97.9455C48.3061 97.8697 48.058 97.6922 47.8772 97.4562C47.8677 97.5522 47.852 97.6482 47.8268 97.7475C47.6018 98.6196 46.7939 99.1664 46.0195 98.9688C45.5554 98.85 45.2112 98.489 45.0577 98.032C45.0561 98.1748 45.0381 98.3227 45.0006 98.4684C44.7755 99.3421 43.9665 99.8889 43.1928 99.6909C42.5596 99.5291 42.1475 98.9175 42.1436 98.2217C41.802 98.8288 41.1454 99.1669 40.5116 99.0051C39.8498 98.8361 39.4299 98.1765 39.4635 97.4417C39.155 97.6219 38.7955 97.6878 38.4434 97.5979C37.9955 97.4836 37.6573 97.1448 37.4955 96.7096C37.379 96.3933 37.3556 96.0278 37.4502 95.6596C37.5498 95.274 37.7648 94.9504 38.0392 94.7288C37.3343 92.6281 37.6187 89.6893 38.2525 87.2292C39.2793 83.2453 41.2881 80.162 44.8181 81.0636C45.1142 81.1395 45.4059 81.2656 45.6898 81.4352C48.3878 83.0349 50.4487 88.5293 50.3149 92.3335C50.4453 92.3268 50.5758 92.3363 50.7051 92.3692C51.4794 92.5667 51.9229 93.4349 51.6984 94.307C51.5147 95.0184 50.9431 95.5133 50.3194 95.5658Z" fill="#FFF5F5"/>
<g opacity="0.2">
<path d="M50.32 95.5658C50.4745 95.9045 50.5176 96.313 50.4118 96.7231C50.1873 97.5952 49.3783 98.1431 48.604 97.9456C48.3067 97.8697 48.0586 97.6922 47.8778 97.4562C47.8683 97.5522 47.8526 97.6482 47.8274 97.7475C47.6024 98.6196 46.7944 99.1664 46.0201 98.9689C45.556 98.85 45.2117 98.489 45.0583 98.032C45.0567 98.1749 45.0387 98.3228 45.0012 98.4684C44.7761 99.3422 43.9671 99.889 43.1934 99.6909C42.5602 99.5291 42.1481 98.9175 42.1442 98.2218C41.8026 98.8288 41.146 99.167 40.5122 99.0051C39.8504 98.8361 39.4305 98.1766 39.4641 97.4417C39.1556 97.6219 38.7961 97.6878 38.444 97.598C37.9961 97.4836 37.6579 97.1449 37.4961 96.7097C37.8897 96.9881 38.3577 97.0612 38.8907 96.679C39.478 97.7391 41.0216 97.6777 41.8782 96.9669C42.4689 98.2921 43.9879 97.8993 44.5483 96.6968C45.6311 97.7352 47.4008 96.2365 47.2625 94.7902C47.2026 94.167 46.8751 93.4891 46.4054 93.1443C45.8237 92.7174 45.2616 93.0628 44.6267 92.8664C46.3522 91.6126 47.1786 89.5102 47.2726 87.256C47.3544 85.2752 46.7654 83.5455 45.9222 81.8755C45.8724 81.7779 45.7946 81.6233 45.6915 81.4347C48.3896 83.0344 50.4505 88.5287 50.3167 92.3329C50.4471 92.3263 50.5776 92.3358 50.7069 92.3687C51.4812 92.5662 51.9246 93.4344 51.7001 94.3065C51.5153 95.0184 50.9437 95.5134 50.32 95.5658Z" fill="#7C4949"/>
</g>
<path d="M75.9619 88.0461C75.28 89.4326 73.2919 90.4733 70.5905 91.2354C69.6314 91.5083 68.5834 91.7432 67.471 91.9485C59.8673 93.3418 49.2874 93.2441 44.1433 92.6036C42.448 92.3916 41.3433 92.1204 41.1272 91.8263C41.3254 91.356 41.5298 90.8823 41.7386 90.4097C41.7918 90.2919 41.8444 90.1731 41.8976 90.0559C42.1468 89.5057 42.4021 88.96 42.6619 88.4283C42.7162 88.3178 42.7704 88.2073 42.8242 88.0991C42.8785 87.9903 42.9328 87.882 42.9883 87.7749C43.0426 87.6678 43.0963 87.5612 43.1523 87.4558C43.6008 86.5948 44.0576 85.7908 44.5127 85.0927C44.5609 85.0197 44.6074 84.9466 44.6555 84.8757C44.7809 84.6888 44.9058 84.5125 45.0301 84.3445C45.0587 84.3049 45.0872 84.2675 45.1157 84.2296C45.1443 84.1916 45.1729 84.1543 45.2014 84.118C45.23 84.0801 45.2585 84.0443 45.2871 84.0097C45.3156 83.9735 45.3442 83.9372 45.3722 83.9032C45.4002 83.8686 45.4287 83.8346 45.4573 83.8C45.5138 83.733 45.5704 83.6677 45.6263 83.6058C45.6543 83.5734 45.6823 83.5422 45.7109 83.5126C45.7747 83.4445 45.8363 83.3809 45.8957 83.3195C45.9422 83.2743 45.9881 83.2325 46.0329 83.1906C46.0642 83.1599 46.0978 83.131 46.1291 83.1036C46.1566 83.0796 46.1845 83.0556 46.212 83.0333C46.2142 83.0299 46.2159 83.0283 46.2198 83.0272C46.2618 82.992 46.3038 82.9585 46.3458 82.9267C46.3827 82.896 46.4208 82.8693 46.4577 82.8442C46.563 82.7699 46.8631 82.6243 47.3239 82.4307C50.1439 81.2483 58.9916 78.2643 66.1205 78.8932C66.1843 78.8976 66.2482 78.9032 66.312 78.9116C66.5169 78.93 66.7201 78.9545 66.9217 78.9796C67.0045 78.9902 67.0852 79.0008 67.1658 79.0131C67.247 79.0237 67.3276 79.036 67.4077 79.05C67.4799 79.0617 67.5504 79.0734 67.6221 79.0851C67.6702 79.0935 67.72 79.1018 67.7682 79.1102C67.8074 79.118 67.8472 79.1258 67.8863 79.132C67.9653 79.1476 68.0442 79.1615 68.1226 79.1788C68.1635 79.1872 68.2049 79.1967 68.2458 79.2045C68.3141 79.2196 68.3824 79.2347 68.4496 79.2492C68.5179 79.2642 68.5862 79.281 68.6528 79.2971C68.9943 79.3792 69.3297 79.474 69.6572 79.5806C69.7165 79.6007 69.7765 79.6196 69.8341 79.6408C69.9394 79.6771 70.0458 79.7156 70.1511 79.7541C70.2563 79.7937 70.3593 79.8356 70.4623 79.8769C70.4998 79.8914 70.5368 79.9076 70.5738 79.9221C70.5771 79.9243 70.5805 79.926 70.5838 79.9265C70.6516 79.955 70.7171 79.984 70.7809 80.0141C70.8974 80.0666 71.0132 80.1196 71.1274 80.1754C71.1845 80.2049 71.2416 80.2334 71.2965 80.2624C71.4577 80.3461 71.6168 80.4343 71.7735 80.5258C71.825 80.557 71.8788 80.5883 71.9303 80.6212C72.1308 80.7451 72.325 80.8756 72.5132 81.0162C72.5714 81.0581 72.6273 81.1 72.6833 81.1451C72.741 81.1887 72.7987 81.2339 72.8547 81.2807C72.9123 81.3276 72.9683 81.3745 73.022 81.423C73.0663 81.4609 73.1094 81.4978 73.1514 81.5374C73.1576 81.543 73.166 81.5502 73.1727 81.5558C73.241 81.6188 73.3082 81.6841 73.3765 81.7489C73.419 81.7896 73.461 81.8326 73.5035 81.875C73.5539 81.9285 73.606 81.9821 73.6559 82.0357C73.7063 82.0892 73.7544 82.1439 73.8025 82.2014C73.8512 82.2544 73.8977 82.3096 73.9441 82.366C73.9441 82.3676 73.9476 82.3716 73.9504 82.3749C73.9968 82.4296 74.0416 82.4882 74.0864 82.5462C74.1261 82.5959 74.1648 82.6466 74.2012 82.6974C74.2964 82.828 74.3898 82.9624 74.4794 83.1014C74.522 83.1644 74.5606 83.2291 74.6015 83.2961C74.6468 83.3698 74.6899 83.4456 74.7336 83.5226C74.7677 83.5818 74.8002 83.6415 74.831 83.7017C74.868 83.7715 74.9049 83.8412 74.9402 83.9127C74.9704 83.9735 75.0012 84.036 75.0298 84.1001C75.0371 84.1163 75.0443 84.1342 75.0538 84.152C75.1177 84.291 75.177 84.4316 75.2352 84.5772C75.2649 84.6537 75.294 84.7312 75.3237 84.8093C75.3517 84.8874 75.3791 84.9667 75.4066 85.0481C75.4329 85.1274 75.458 85.2088 75.4838 85.292C75.5095 85.3734 75.5331 85.4577 75.5572 85.5402C75.579 85.6245 75.6031 85.7093 75.6249 85.7952C75.626 85.8059 75.6288 85.8165 75.6333 85.8271C75.7369 86.2467 75.8175 86.6908 75.8785 87.1578C75.8903 87.2432 75.9004 87.3285 75.9099 87.4156C75.9301 87.6204 75.949 87.8307 75.9619 88.0461Z" fill="#F9AE7A"/>
<path d="M63.9753 78.4234L63.6193 80.9292C63.4194 80.6178 61.0573 80.0627 60.7745 79.7987C60.0719 79.1364 61.3294 77.1757 60.3166 77.3309C60.2393 77.3431 60.171 77.3593 60.1083 77.3788L55.967 79.5466C55.7738 79.7547 55.5369 80.3255 55.3186 81.182L54.9754 81.2366L54.7072 79.5638L54.4038 77.6762L54.3193 77.1478L54.2901 76.9598L54.1714 76.2266L54.1267 75.9432L52.4851 65.6922L51.7483 61.104L61.26 59.5981L61.3098 59.9261L61.8271 63.1467L61.8719 63.4268L62.3445 66.364L63.0521 70.7942L63.0723 70.9215L63.9753 78.4234Z" fill="#F9AE7A"/>
<path d="M75.5725 93.1342V93.1381C75.5283 93.388 75.4756 93.6458 75.4191 93.9036C75.3787 94.0972 75.334 94.2903 75.2898 94.4878C75.217 94.7897 75.1526 95.0921 75.0916 95.3822C75.0876 95.3945 75.0876 95.4062 75.0837 95.4185C75.0395 95.616 74.9986 95.8091 74.9583 96.0027C74.8049 96.6996 74.6509 97.3563 74.5054 97.9528C74.3195 98.7144 74.1453 99.3751 73.988 99.9107C73.8184 100.487 73.6644 100.91 73.539 101.139C73.179 101.792 72.8313 102.445 72.4999 103.097C72.4394 103.117 72.3784 103.141 72.318 103.161C72.2816 103.178 72.2373 103.19 72.201 103.202C72.1567 103.222 72.1119 103.238 72.0637 103.25C71.9624 103.286 71.8577 103.327 71.7525 103.359C71.5464 103.428 71.3359 103.5 71.126 103.564C71.033 103.597 70.9401 103.625 70.8471 103.653C70.8029 103.669 70.7503 103.689 70.7055 103.702C70.5762 103.738 70.4547 103.778 70.3253 103.814C70.3052 103.818 70.2851 103.827 70.2649 103.834C70.2364 103.842 70.2122 103.851 70.1882 103.854C70.0711 103.895 69.9497 103.927 69.8282 103.963C69.7515 103.987 69.6703 104.012 69.5897 104.036C69.537 104.052 69.4805 104.068 69.4239 104.084C69.3797 104.097 69.331 104.108 69.2823 104.121C69.1446 104.161 69.0074 104.197 68.8658 104.233C68.7488 104.266 68.6312 104.298 68.5102 104.33C68.1547 104.419 67.7947 104.507 67.4347 104.588C67.4308 104.588 67.4269 104.592 67.4224 104.592C67.3776 104.604 67.3378 104.608 67.293 104.624C67.2124 104.64 67.1357 104.656 67.0585 104.676C67.0299 104.68 67.0019 104.689 66.9694 104.692C66.8037 104.733 66.6341 104.765 66.4639 104.801C66.4275 104.805 66.3872 104.817 66.3508 104.821C66.2702 104.841 66.1812 104.854 66.0961 104.874C66.011 104.894 65.9265 104.906 65.8414 104.922C65.6516 104.959 65.4612 104.991 65.2714 105.027C65.2148 105.035 65.1582 105.047 65.0972 105.06C65.053 105.068 65.0127 105.072 64.9679 105.08C64.7093 105.124 64.4461 105.168 64.1874 105.213C64.0861 105.229 63.9854 105.241 63.8762 105.253C63.6455 105.293 63.4115 105.325 63.1769 105.354C63.1685 105.354 63.1607 105.358 63.1528 105.354C63.1125 105.362 63.0677 105.366 63.0274 105.37C62.6719 105.414 62.3119 105.455 61.9563 105.491C61.3136 105.555 60.6709 105.604 60.0237 105.64C59.8821 105.648 59.7365 105.656 59.5954 105.66C59.3491 105.672 59.1061 105.68 58.8558 105.684C58.7024 105.692 58.5484 105.696 58.395 105.7C58.1285 105.708 57.8654 105.708 57.5989 105.704C57.3363 105.712 57.0732 105.708 56.8106 105.696C56.3901 105.696 55.9735 105.676 55.5531 105.656C55.5492 105.656 55.5492 105.656 55.5453 105.656C55.4602 105.656 55.3717 105.652 55.2905 105.644H55.2301C55.1332 105.64 55.0358 105.635 54.9389 105.624C54.846 105.624 54.7531 105.62 54.6562 105.611C54.5431 105.608 54.43 105.599 54.3208 105.587C54.248 105.584 54.1714 105.571 54.0986 105.567C53.7223 105.539 53.3427 105.507 52.9704 105.459C52.3115 105.39 51.6564 105.306 51.0013 105.209C50.8798 105.189 50.755 105.172 50.6374 105.148C50.4717 105.124 50.302 105.096 50.1402 105.064C49.8004 105.007 49.465 104.947 49.1252 104.878C48.628 104.786 48.1348 104.681 47.6415 104.564C47.3224 104.488 46.9988 104.411 46.6791 104.326C46.5822 104.302 46.477 104.274 46.3718 104.246C46.2827 104.226 46.1898 104.202 46.0969 104.178C46.0683 104.169 46.0319 104.153 46 104.149C45.8421 104.105 45.6926 104.064 45.5308 104.016C45.4866 104.004 45.4418 103.988 45.3976 103.98C45.2156 103.928 45.042 103.875 44.8601 103.819H44.8562C44.1933 103.613 43.5298 103.396 42.8754 103.162C42.8065 103.138 42.7421 103.113 42.6811 103.093C42.6323 103.077 42.5842 103.057 42.5355 103.041C41.7836 102.763 41.0317 102.465 40.2876 102.143C40.2837 102.143 40.2798 102.139 40.2753 102.139C40.17 102.09 40.0653 102.046 39.9601 101.998C39.8022 101.933 39.6488 101.86 39.4993 101.788C39.305 101.699 39.1113 101.615 38.9215 101.522C38.6226 100.704 38.4244 99.9626 38.3997 99.3299C38.3958 99.2451 38.5856 98.6084 38.9215 97.6253C38.9859 97.4317 39.0587 97.2224 39.1359 97.0009C39.5038 95.9491 39.9931 94.6279 40.5631 93.2095C40.5871 93.1448 40.6118 93.0845 40.6359 93.0198C40.7937 92.6292 40.9595 92.2264 41.1291 91.8235C41.1778 91.8961 41.2785 91.9647 41.428 92.0288C41.4683 92.0489 41.5132 92.0651 41.5574 92.0813C41.586 92.0936 41.6139 92.1053 41.6464 92.1136C41.7231 92.1415 41.8043 92.17 41.8972 92.194C42.0103 92.2264 42.1396 92.2582 42.2734 92.2905C42.4151 92.3229 42.5725 92.3547 42.7382 92.3871C42.9 92.4194 43.0735 92.4473 43.2555 92.4758C43.2594 92.4797 43.2678 92.4797 43.2717 92.4797C43.4498 92.5076 43.6356 92.5321 43.8338 92.56C43.85 92.564 43.8624 92.5639 43.8781 92.5678C43.8781 92.5678 43.8781 92.5678 43.882 92.5678C44.0393 92.5879 44.2056 92.608 44.3791 92.6281C44.5325 92.6482 44.6944 92.6644 44.8562 92.6845C44.9855 92.6967 45.1187 92.7085 45.2526 92.7246C45.313 92.7285 45.378 92.7369 45.4423 92.7408H45.4546C45.5235 92.7486 45.5918 92.7531 45.6646 92.7609C46.2508 92.8134 46.8857 92.8574 47.557 92.8982C47.7955 92.9104 48.0418 92.9261 48.2887 92.9383C48.7053 92.9584 49.1297 92.9746 49.5664 92.9908C49.9017 93.0031 50.2416 93.0109 50.5893 93.0187C50.7791 93.027 50.9733 93.031 51.1676 93.031C51.2969 93.0349 51.4223 93.0388 51.5517 93.0388C51.6368 93.0388 51.7213 93.0427 51.8104 93.0427C52.0248 93.0466 52.2431 93.0466 52.4615 93.0466C53.2901 93.0544 54.1433 93.0505 55.0044 93.0343C55.061 93.0343 55.1175 93.0304 55.174 93.0304H55.2508C55.7642 93.0181 56.2776 93.0064 56.7949 92.9863C57.0457 92.9785 57.3004 92.9701 57.5507 92.9579H57.5547C57.6358 92.9539 57.7204 92.9501 57.8055 92.9456C58.3637 92.9216 58.9252 92.8931 59.4874 92.8569C59.5361 92.8569 59.5842 92.8529 59.6329 92.849C59.7785 92.8407 59.9201 92.8329 60.0618 92.8206C60.4335 92.7966 60.8013 92.7682 61.1653 92.7358C61.1731 92.7397 61.1815 92.7358 61.1893 92.7358C61.2823 92.728 61.3713 92.7235 61.4643 92.7157C61.6989 92.6956 61.9373 92.6755 62.1719 92.6516C62.1881 92.6516 62.2044 92.6476 62.2206 92.6476C62.2895 92.6437 62.3539 92.6354 62.4227 92.6275C62.7301 92.5991 63.0375 92.5673 63.3404 92.5349C63.6438 92.5026 63.9467 92.4663 64.2463 92.43C64.5452 92.3938 64.8447 92.3536 65.1398 92.3134C65.4309 92.2732 65.7221 92.2331 66.0132 92.1884C66.3005 92.1444 66.5831 92.0997 66.8664 92.0512C66.9717 92.035 67.0725 92.0149 67.1739 91.9987C67.2752 91.9786 67.3759 91.9624 67.4728 91.9423C67.489 91.9423 67.5092 91.9385 67.5254 91.9345C67.5456 91.9306 67.5618 91.9267 67.582 91.9223C67.6184 91.9184 67.6548 91.91 67.6911 91.9022C67.6951 91.9022 67.6951 91.9022 67.6996 91.9022C67.7119 91.8983 67.7197 91.8938 67.7281 91.8938C67.7444 91.8899 67.7561 91.8899 67.7723 91.886C67.7763 91.886 67.7762 91.886 67.7801 91.886H67.7841C67.9661 91.8497 68.1441 91.8174 68.3177 91.7811C68.4067 91.761 68.4918 91.7448 68.5802 91.7248C68.681 91.7047 68.7823 91.6846 68.8792 91.66C69.0326 91.6277 69.1827 91.5914 69.3321 91.5551C69.7285 91.4664 70.1126 91.3699 70.4805 91.265C70.4889 91.2611 70.4927 91.2611 70.4967 91.2566C70.5129 91.2527 70.5292 91.2488 70.5454 91.2443H70.5493C70.5616 91.2404 70.5779 91.236 70.5896 91.2321C70.5896 91.2321 70.5896 91.2321 70.5935 91.2321C73.2943 90.4705 75.283 89.4271 75.9621 88.0411C76.0539 89.5163 75.9364 91.2042 75.5725 93.1342Z" fill="#FFF5F5"/>
<path d="M75.0916 95.3822C75.0876 95.3945 75.0876 95.4062 75.0837 95.4185C75.0395 95.616 74.9986 95.8091 74.9583 96.0027C74.8049 96.6996 74.6509 97.3563 74.5054 97.9528C74.3195 98.7144 74.1453 99.375 73.988 99.9107C73.8184 100.487 73.6644 100.91 73.539 101.139C73.179 101.792 72.8313 102.445 72.4999 103.097C72.4394 103.117 72.3784 103.141 72.318 103.161C72.2816 103.178 72.2373 103.19 72.201 103.202C72.1567 103.222 72.1119 103.238 72.0637 103.25C71.9624 103.286 71.8577 103.327 71.7525 103.359C71.5464 103.428 71.3359 103.5 71.126 103.564C71.033 103.597 70.9401 103.625 70.8471 103.653C70.8029 103.669 70.7503 103.689 70.7055 103.702C70.5762 103.738 70.4547 103.778 70.3253 103.814C70.3052 103.818 70.2851 103.827 70.2649 103.834C70.2364 103.842 70.2122 103.85 70.1882 103.854C70.0711 103.895 69.9497 103.927 69.8282 103.963C69.7515 103.987 69.6703 104.012 69.5897 104.036C69.537 104.052 69.4805 104.068 69.4239 104.084C69.3797 104.097 69.331 104.108 69.2823 104.121C69.1446 104.161 69.0074 104.197 68.8658 104.233C68.7488 104.266 68.6312 104.298 68.5102 104.33C68.1547 104.419 67.7947 104.507 67.4347 104.588C67.4308 104.588 67.4269 104.591 67.4224 104.591C67.3776 104.604 67.3378 104.608 67.293 104.624C67.2124 104.64 67.1357 104.656 67.0585 104.676C67.0299 104.68 67.0019 104.689 66.9694 104.692C66.8037 104.733 66.6341 104.765 66.4639 104.801C66.4275 104.805 66.3872 104.817 66.3508 104.821C66.2702 104.841 66.1812 104.854 66.0961 104.874C66.011 104.894 65.9265 104.906 65.8414 104.922C65.6516 104.959 65.4612 104.991 65.2714 105.027C65.2148 105.035 65.1582 105.047 65.0972 105.06C65.053 105.068 65.0127 105.072 64.9679 105.08C64.7093 105.124 64.4461 105.168 64.1874 105.213C64.0861 105.229 63.9854 105.241 63.8762 105.253C63.6455 105.293 63.4115 105.325 63.1769 105.354C63.1685 105.354 63.1607 105.358 63.1528 105.354C63.1125 105.361 63.0677 105.366 63.0274 105.37C62.6719 105.414 62.3119 105.455 61.9563 105.491C61.3136 105.555 60.6709 105.604 60.0237 105.64C59.8821 105.648 59.7365 105.656 59.5954 105.66C59.3491 105.672 59.1061 105.68 58.8558 105.684C58.7024 105.692 58.5484 105.696 58.395 105.7C58.1285 105.708 57.8654 105.708 57.5989 105.704C57.3363 105.712 57.0732 105.708 56.8106 105.696C56.3901 105.696 55.9735 105.676 55.5531 105.656C55.5492 105.656 55.5492 105.656 55.5453 105.656C55.4602 105.656 55.3717 105.652 55.2905 105.644H55.2301C55.1332 105.64 55.0358 105.635 54.9389 105.624C54.846 105.624 54.7531 105.62 54.6562 105.611C54.5431 105.608 54.43 105.599 54.3208 105.587C54.248 105.584 54.1714 105.571 54.0986 105.567C53.7223 105.539 53.3427 105.507 52.9704 105.459C52.3115 105.39 51.6564 105.306 51.0013 105.209C50.8798 105.189 50.755 105.172 50.6374 105.148C50.4717 105.124 50.302 105.096 50.1402 105.064C49.8004 105.007 49.465 104.947 49.1252 104.878C48.628 104.786 48.1348 104.681 47.6415 104.564C47.3224 104.488 46.9988 104.411 46.6791 104.326C46.5822 104.302 46.477 104.274 46.3718 104.246C46.2827 104.226 46.1898 104.202 46.0969 104.177C46.0683 104.169 46.0319 104.153 46 104.149C45.8421 104.105 45.6926 104.064 45.5308 104.016C45.4866 104.004 45.4418 103.988 45.3976 103.98C45.2156 103.928 45.042 103.875 44.8601 103.819H44.8562C44.1933 103.613 43.5298 103.396 42.8754 103.162C42.8065 103.138 42.7421 103.113 42.6811 103.093C42.6323 103.077 42.5842 103.057 42.5355 103.041C41.7836 102.763 41.0317 102.465 40.2876 102.143C40.2837 102.143 40.2798 102.139 40.2753 102.139C40.17 102.09 40.0653 102.046 39.9601 101.998C39.8022 101.933 39.6488 101.86 39.4993 101.788C39.305 101.699 39.1113 101.615 38.9215 101.522C38.6226 100.704 38.4244 99.9626 38.3997 99.3299C38.3958 99.245 38.5856 98.6084 38.9215 97.6253C38.9859 97.4317 39.0587 97.2224 39.1359 97.0009C39.5038 95.9491 39.9931 94.6279 40.5631 93.2095C40.5871 93.1448 40.6118 93.0845 40.6359 93.0198C40.7937 92.6292 40.9595 92.2264 41.1291 91.8235C41.1778 91.896 41.2785 91.9647 41.428 92.0288C41.7152 92.9958 42.0507 93.9466 42.4347 94.8734C42.5075 95.0586 42.5842 95.2438 42.6654 95.4252C42.9241 96.0172 43.1989 96.5975 43.494 97.1616C43.5382 97.2503 43.583 97.339 43.6312 97.4277C43.6636 97.488 43.6922 97.5444 43.728 97.6007C44.0393 98.1648 44.3629 98.6402 44.7145 99.0793C45.2844 99.7924 45.9311 100.405 46.7278 101.126C47.4394 101.775 48.3895 102.403 49.2103 103.08C49.6593 103.447 50.0714 103.833 50.3788 104.248C54.0291 102.093 57.8497 100.513 61.3349 98.0515C63.3034 96.6577 65.9477 94.4214 67.4717 91.9474C67.4879 91.9435 67.5042 91.9395 67.5243 91.9351C67.5445 91.9312 67.5607 91.9273 67.5808 91.9228C67.6172 91.9189 67.6537 91.9105 67.6901 91.9027C67.694 91.9027 67.6939 91.9027 67.6984 91.9027C67.7107 91.8988 67.7186 91.8943 67.727 91.8943C67.7432 91.8904 67.7549 91.8904 67.7712 91.8865C67.7751 91.8865 67.7751 91.8865 67.779 91.8865H67.7829C67.9487 91.8503 68.1267 91.814 68.3126 91.7699C68.4016 91.7498 68.4907 91.7337 68.5797 91.7136C69.2549 91.5646 69.9827 91.3911 70.476 91.2622C70.4838 91.2622 70.4883 91.2583 70.4961 91.2583C70.5124 91.2544 70.5286 91.2504 70.5448 91.246H70.5487C70.5611 91.2421 70.5773 91.2376 70.5891 91.2337C70.5891 91.2337 70.589 91.2337 70.593 91.2337C70.6293 91.2823 70.6658 91.3341 70.7022 91.3827C71.8897 93.0214 73.216 94.3991 75.0916 95.3822Z" fill="#C92727"/>
<path d="M75.879 87.1578C75.8184 86.6908 75.7369 86.2467 75.6331 85.8271C75.7375 86.2467 75.8206 86.6908 75.879 87.1578Z" fill="white"/>
<path d="M54.5114 56.6871L48.906 59.3397C52.1504 64.487 49.4496 71.4884 47.3517 76.6161C45.8894 80.1905 44.1062 83.2794 43.0295 87.2945L44.7344 87.9775C46.596 82.7236 50.496 78.4881 52.5726 75.9114C54.6559 73.328 56.0001 70.0516 56.3719 66.7378C56.6972 63.8475 56.3154 59.0769 54.5114 56.6871Z" fill="#4C1B05"/>
<path d="M45.2804 92.9289C45.473 94.47 45.0246 96.164 44.4031 97.5383C44.3258 96.6869 44.2676 95.8209 43.963 95.0213C43.7587 96.8754 43.0387 98.4824 42.2297 100.101C42.1871 98.9343 40.8222 94.7579 40.6279 93.6654C40.5484 93.2218 40.5092 92.8056 40.5019 92.4117C40.4285 88.9891 42.827 87.4078 43.9837 86.3761L44.8096 86.4649L45.5514 86.5441C44.3197 88.358 45.0313 90.9353 45.2804 92.9289Z" fill="#282424"/>
<path d="M44.1019 89.6593C44.0588 90.8818 44.6075 92.5256 44.2732 93.6449C44.1859 92.9753 43.6439 92.159 43.2615 91.5849C43.3203 92.5903 43.1781 93.4864 43.0662 94.4562C42.9715 94.1041 42.8153 93.776 42.5813 93.4848C42.6547 94.6571 42.0645 95.7987 42.069 96.9475C41.8647 95.3177 40.7387 94.0265 40.5019 92.4123C40.4285 88.9898 42.827 87.4085 43.9837 86.3768L44.8096 86.4655C44.7083 86.8165 44.6181 87.1663 44.5297 87.4643C44.3124 88.1807 44.1282 88.9155 44.1019 89.6593Z" fill="#131312"/>
<path d="M48.2083 75.9667C48.2083 75.9667 42.847 81.1546 43.9494 87.7588C45.0669 87.5451 53.5338 84.5867 48.2083 75.9667Z" fill="#131312"/>
<path d="M49.0288 74.8021C49.0288 74.8021 43.6669 79.9901 44.7699 86.5948C45.8874 86.3817 54.3543 83.4227 49.0288 74.8021Z" fill="#282424"/>
<path d="M39.6848 85.9538C39.8791 86.0335 40.0835 86.1161 40.275 86.1803C40.1664 86.2305 39.9391 86.1429 39.8053 86.1981C39.6793 86.2506 39.3764 87.5362 39.5085 87.9647C39.5707 88.165 39.5678 88.17 39.7336 88.2068C40.0986 88.2911 42.6667 87.8704 43.3128 88.3513L43.581 87.0535C43.5653 86.9905 43.4998 86.8571 43.3878 86.6814C42.9825 86.0481 41.954 84.8746 40.3836 84.6141C40.3265 84.604 40.2688 84.5956 40.2112 84.5884C39.9262 85.0219 39.822 85.4639 39.6848 85.9538Z" fill="#664472"/>
<path d="M39.6848 85.9539C39.8791 86.0337 40.0835 86.1163 40.275 86.1805C40.1664 86.2307 39.9391 86.1431 39.8053 86.1983C39.6793 86.2508 39.3764 87.5363 39.5085 87.9649C39.5707 88.1652 39.5678 88.1702 39.7336 88.207C40.0986 88.2913 42.6667 87.8706 43.3128 88.3515L43.581 87.0537C43.5653 86.9907 43.4998 86.8573 43.3878 86.6815C42.922 86.2809 42.3297 85.988 41.7905 85.7944C42.1404 86.08 42.4506 86.5024 42.7194 86.8595C42.5111 86.8182 42.3168 86.7797 42.1102 86.7479C42.2116 86.845 42.3432 86.8969 42.4529 86.9895C42.5654 87.0866 42.6377 87.2094 42.7418 87.3093C42.5929 87.432 42.3812 87.4515 42.1948 87.4951C41.9266 87.5559 41.65 87.6373 41.3762 87.6742C40.9619 87.7311 40.4894 87.7166 40.1126 87.5157C39.985 87.4471 39.8399 87.3059 39.7806 87.1686C39.7207 87.0331 39.6843 86.5828 39.8248 86.4667C39.9183 86.3892 40.3259 86.4243 40.4558 86.4215C40.6809 86.4137 40.9071 86.4611 41.1238 86.46C40.8461 86.1236 40.3483 86.0282 40.2235 85.6052C40.1227 85.2665 40.2184 84.925 40.383 84.6148C40.3259 84.6048 40.2683 84.5964 40.2106 84.5892C39.9262 85.0221 39.822 85.4641 39.6848 85.9539Z" fill="#473051"/>
<path d="M44.2194 88.6186C43.5633 89.0349 42.7588 89.1325 42.4693 88.2481C42.3265 87.8157 42.3053 87.1751 42.4721 86.6445C42.588 86.2751 42.794 85.9599 43.1132 85.802C43.5767 85.571 44.5615 85.5325 45.2205 85.7339C45.5738 85.8411 45.8353 86.0157 45.8745 86.2673C45.9859 86.9754 44.631 88.3569 44.2194 88.6186Z" fill="#664472"/>
<path d="M44.2194 88.6186C43.5633 89.0349 42.7588 89.1325 42.4693 88.2481C42.3265 87.8157 42.3053 87.1751 42.4721 86.6445C42.5079 87.1266 42.6787 87.5847 43.0247 87.9184C43.2559 87.453 43.4211 86.8722 43.8852 86.558C43.6826 87.0262 43.6405 87.4134 43.6506 87.9139C44.2071 87.6048 44.6253 87.294 44.9663 86.7321C45.1337 86.457 45.2418 86.1535 45.2322 85.8299C45.2311 85.8059 45.2283 85.7735 45.2205 85.7333C45.5738 85.8405 45.8353 86.0151 45.8745 86.2668C45.9859 86.9754 44.631 88.3569 44.2194 88.6186Z" fill="#473051"/>
<path d="M49.2497 88.8345C49.0247 88.7547 48.7896 88.6699 48.5796 88.579C48.6328 88.7028 48.8915 88.8021 48.962 88.9494C49.0275 89.0889 48.3008 90.4024 47.8624 90.6635C47.6569 90.7851 47.6558 90.7913 47.4873 90.697C47.1155 90.4911 45.2725 88.1923 44.3599 88.1086L45.1263 86.8119C45.1873 86.7706 45.3447 86.7075 45.5731 86.6439C46.3989 86.4168 48.1625 86.207 49.6859 87.1762C49.7413 87.2108 49.7967 87.2476 49.8505 87.285C49.7581 87.867 49.509 88.3178 49.2497 88.8345Z" fill="#664472"/>
<path d="M49.25 88.8345C49.0249 88.7547 48.7898 88.6699 48.5799 88.5789C48.6331 88.7028 48.8917 88.8021 48.9622 88.9494C49.0278 89.0889 48.301 90.4023 47.8627 90.6635C47.6572 90.7851 47.656 90.7913 47.4875 90.697C47.1158 90.4911 45.2727 88.1922 44.3601 88.1086L45.1265 86.8118C45.1875 86.7706 45.3449 86.7075 45.5733 86.6439C46.2726 86.6589 46.9954 86.8604 47.5978 87.1059C47.0844 87.0813 46.5005 87.203 46.0005 87.3001C46.2076 87.4234 46.4014 87.5372 46.5996 87.6672C46.44 87.6728 46.2894 87.6164 46.1265 87.6114C45.9574 87.6081 45.8023 87.6566 45.6383 87.6622C45.6702 87.8781 45.8331 88.0555 45.9568 88.2335C46.1371 88.4874 46.3073 88.7658 46.51 89.0041C46.8157 89.3662 47.225 89.7116 47.6964 89.8271C47.8565 89.8667 48.0866 89.8572 48.2417 89.7864C48.3957 89.7172 48.7708 89.3657 48.7405 89.1615C48.7215 89.0253 48.3508 88.7463 48.2433 88.6453C48.0591 88.4684 47.8324 88.3368 47.6505 88.1722C48.142 88.0991 48.6347 88.3948 49.063 88.1331C49.4067 87.9239 49.5871 87.5634 49.6856 87.1768C49.741 87.2113 49.7964 87.2482 49.8502 87.2856C49.7584 87.867 49.5092 88.3178 49.25 88.8345Z" fill="#473051"/>
<path d="M51.0744 70.2223C51.0744 70.2223 44.9376 76.1608 46.1996 83.7202C47.4789 83.4758 57.1708 80.0895 51.0744 70.2223Z" fill="#131312"/>
<path d="M52.0136 68.8893C52.0136 68.8893 45.8762 74.8284 47.1393 82.3877C48.4175 82.1439 58.11 78.7576 52.0136 68.8893Z" fill="#282424"/>
<path d="M52.3327 64.9959C52.3327 64.9959 46.711 72.1167 49.1145 79.9048C50.428 79.4673 60.1586 74.5349 52.3327 64.9959Z" fill="#131312"/>
<path d="M53.1321 63.4598C53.1321 63.4598 47.5099 70.5811 49.9146 78.3687C51.2269 77.9313 60.9575 72.9988 53.1321 63.4598Z" fill="#282424"/>
<path d="M50.0451 58.9212C50.0451 58.9212 47.4138 68.323 53.0438 75.0817C54.1686 74.1058 61.798 65.1895 50.0451 58.9212Z" fill="#3F1307"/>
<path d="M50.2015 57.0632C50.2015 57.0632 47.5696 66.465 53.2008 73.2237C54.325 72.2478 61.9538 63.3314 50.2015 57.0632Z" fill="#592009"/>
<path d="M47.5652 53.4231C47.5652 53.4231 47.531 63.1831 54.7595 68.2154C55.5837 66.9772 60.5654 56.3669 47.5652 53.4231Z" fill="#3F1307"/>
<path d="M47.2217 51.5896C47.2217 51.5896 47.1875 61.3496 54.4166 66.3819C55.2407 65.1443 60.2225 54.534 47.2217 51.5896Z" fill="#592009"/>
<path d="M62.6821 68.9005C61.5904 73.0373 57.5912 77.6098 54.405 77.6757L54.3204 77.1473L54.2913 76.9593L54.1726 76.2261L54.1928 76.2133L52.1145 67.2076L61.8737 63.4268L62.3462 66.364L62.6821 68.9005Z" fill="#EF7950"/>
<path d="M65.2504 42.3523C63.3121 40.3771 52.7238 38.3673 49.0091 43.2998C45.8413 47.5063 46.0619 53.1669 44.8392 58.2823C42.7715 66.932 51.0224 75.5749 53.52 75.2479C57.8713 74.6799 63.4101 70.6905 65.1625 67.3365C66.4681 64.8379 65.7851 62.1251 66.5247 59.3643C68.033 53.7338 69.5385 46.7229 65.2504 42.3523Z" fill="#F9AE7A"/>
<path d="M48.2033 64.9458L48.0947 64.9043C48.1311 64.9217 48.1669 64.9351 48.2033 64.9458Z" fill="#EF7950"/>
<path d="M48.4186 65.0662L48.2943 65.0645C48.2842 65.1031 48.3447 65.0908 48.4186 65.0662Z" fill="#EF7950"/>
<path d="M51.6174 60.2302C51.1354 60.5862 50.6606 60.8473 51.1717 61.5224C51.885 62.4648 53.376 62.2997 53.9829 62.1875C53.6206 62.1038 52.0082 61.6413 51.5519 61.2178C51.2378 60.9265 53.2153 59.0506 51.6174 60.2302Z" fill="#EF7950"/>
<path d="M48.2021 63.9312L48.1238 63.9212C48.1507 64.0233 50.6376 67.3834 51.2714 68.9033C51.7209 69.979 52.4695 71.2936 53.8445 71.3304C57.309 71.4214 58.6051 65.4857 59.5709 64.2498C58.5715 65.5281 50.034 64.3569 48.2021 63.9312Z" fill="#60281F"/>
<path d="M55.1461 68.607C54.8864 68.4279 54.3175 68.4302 54.018 68.4692C53.4329 68.5473 52.8098 68.7343 52.3121 69.0601C52.1189 69.1857 51.6183 69.6655 51.6251 69.9272C51.6312 70.1889 52.0663 70.498 52.2247 70.6671C52.606 71.0744 53.1116 71.2105 53.6675 71.2658C54.6031 71.3589 55.206 71.0437 55.823 70.3568C56.183 69.9551 56.917 69.68 57.3145 69.3235L58.7752 66.4443C57.4981 66.2803 55.3018 67.2216 55.1461 68.607Z" fill="#EA6453"/>
<path d="M49.1865 63.6907C49.3909 64.2688 49.7934 64.8446 50.1607 65.2569C50.6092 65.7608 51.1656 66.0035 51.7832 66.1413C52.1633 66.2261 52.5676 66.2713 52.9841 66.3132C54.0098 66.4158 55.1139 66.3389 56.0601 66.0437C56.7258 65.835 56.9105 65.2988 57.1451 64.7565L49.1865 63.6907Z" fill="white"/>
<path d="M53.3419 71.0146C53.2568 70.9945 53.1762 70.9661 53.0995 70.9298C53.1398 71.0185 53.1762 71.1073 53.2086 71.196H53.2126C53.2652 71.2083 53.3178 71.2161 53.3744 71.2283L53.3419 71.0146ZM60.4002 63.4564C60.1696 63.7063 58.7105 64.1979 56.6362 64.3993C56.6161 64.3993 56.5959 64.4033 56.5757 64.4033C56.5433 64.4072 56.5113 64.4111 56.4744 64.4111C56.3691 64.4233 56.2683 64.4312 56.1592 64.4395C56.0662 64.4473 55.9694 64.4518 55.872 64.4557C55.7751 64.4635 55.6777 64.468 55.5769 64.4719C55.4839 64.4758 55.395 64.4803 55.2981 64.4803H55.2942C55.2293 64.4842 55.1687 64.4841 55.1038 64.4841C54.7158 64.488 54.3155 64.4842 53.9029 64.4602H53.899C53.45 64.444 52.9892 64.4038 52.5161 64.3436C52.4556 64.3397 52.3907 64.3313 52.3263 64.3235C52.3062 64.3196 52.286 64.3196 52.2658 64.3151C52.2009 64.3073 52.1326 64.295 52.0637 64.2827C52.0436 64.2788 52.0273 64.2788 52.0071 64.2749C51.6231 64.2225 51.2027 64.1583 50.7861 64.0897C50.6484 64.0696 50.5112 64.0456 50.378 64.0211C50.1316 63.9809 49.8847 63.9362 49.6501 63.8961C49.5773 63.8838 49.5045 63.8721 49.4356 63.8598C49.3668 63.8475 49.3024 63.8358 49.2374 63.8235C48.9905 63.7834 48.7565 63.7432 48.5544 63.703C48.5505 63.703 48.5505 63.703 48.5505 63.703C48.0293 63.6104 47.6895 63.5457 47.6895 63.5457C47.6895 63.5457 48.6636 65.0527 49.561 66.5191V66.523C49.561 66.523 49.5611 66.5269 49.565 66.5269C49.7873 66.8896 50.0056 67.2483 50.2038 67.5826V67.5864C50.2604 67.6791 50.3091 67.7678 50.3617 67.8526C50.3617 67.8565 50.3656 67.8565 50.3656 67.861V67.8649C50.4059 67.9335 50.4423 68.0016 50.4787 68.0663C50.5028 68.1065 50.5274 68.1511 50.5476 68.1913C50.7458 68.5417 50.8953 68.8319 50.9759 69.0255C51.0408 69.1828 51.1377 69.4205 51.2832 69.6945C51.6225 70.3473 52.2009 71.1893 53.1107 71.5157C53.1913 71.5441 53.2764 71.5681 53.3654 71.5882C53.3895 71.596 53.4141 71.6005 53.4343 71.6044C53.483 71.6122 53.5272 71.6206 53.5759 71.6284C53.661 71.6407 53.7456 71.6407 53.8346 71.6446C54.0854 71.6646 54.3279 71.6524 54.5625 71.6122C54.6313 71.6044 54.7001 71.5921 54.7684 71.5759C54.9062 71.5475 55.0394 71.5112 55.1687 71.4632C55.2253 71.4471 55.2779 71.427 55.3306 71.4069C55.4397 71.3628 55.5489 71.3142 55.6581 71.2579H55.662C55.6861 71.2501 55.7023 71.2378 55.727 71.2255C55.8602 71.153 55.9895 71.0765 56.1188 70.9878H56.1228C58.0555 69.6783 59.3124 66.7696 59.9434 64.9724C60.0649 64.622 60.1656 64.3073 60.2384 64.0618C60.3437 63.7153 60.4002 63.4899 60.408 63.4497C60.4047 63.4525 60.4047 63.4525 60.4002 63.4564ZM56.3859 69.6649C56.3171 69.7296 56.2443 69.7938 56.1715 69.854C56.1552 69.8663 56.139 69.878 56.1273 69.8903C55.9615 70.0231 55.7919 70.152 55.606 70.2692C55.606 70.2692 55.606 70.2692 55.6021 70.2692C55.5092 70.3294 55.4123 70.3858 55.3149 70.4427C55.3071 70.4466 55.2986 70.4505 55.2908 70.455C55.2622 70.4712 55.2343 70.4873 55.2057 70.5035C55.0965 70.5599 54.9874 70.6162 54.8703 70.6687C54.5551 70.8138 54.2192 70.9264 53.8514 71.0113C53.6734 71.0553 53.5037 71.0548 53.3419 71.0146C53.2568 70.9945 53.1762 70.9666 53.0995 70.9304C53.0508 70.9064 53.0026 70.8779 52.9578 70.8455C52.5614 70.5956 52.2059 70.1085 51.8784 69.4635V69.4596C51.8297 69.3709 51.7855 69.2743 51.7368 69.1778C51.6802 69.0528 51.6236 68.92 51.5671 68.7828C51.4137 68.4123 51.1545 67.9447 50.8555 67.4453C50.8432 67.4291 50.8353 67.409 50.823 67.3928C50.6696 67.1351 50.4994 66.8728 50.3298 66.6072C50.1921 66.3935 50.051 66.1804 49.9132 65.9667C49.7598 65.7368 49.6059 65.5114 49.4642 65.3021C49.2257 64.9595 49.0073 64.6454 48.8293 64.3876C49.0152 64.4278 49.2173 64.4641 49.4356 64.5042C49.4922 64.5165 49.5527 64.5243 49.6098 64.5366H49.6137C49.6461 64.5405 49.6741 64.5489 49.7066 64.5528C49.9289 64.593 50.1635 64.6376 50.4098 64.6739C50.6925 64.7224 50.9882 64.7704 51.2911 64.815C51.5699 64.8552 51.8571 64.8954 52.1483 64.9356C52.1807 64.9395 52.2126 64.9434 52.2451 64.9478C52.2893 64.9518 52.3302 64.9601 52.3705 64.964C52.3907 64.9679 52.4069 64.9679 52.4232 64.9718C52.5284 64.9841 52.6292 64.9958 52.7305 65.0081C53.3088 65.0728 53.8542 65.113 54.3636 65.1331C54.5937 65.1409 54.8205 65.1453 55.0344 65.1453C55.1923 65.1492 55.3496 65.1492 55.4997 65.1453C55.6732 65.1375 55.8434 65.1331 56.0052 65.1253H56.0657C56.0898 65.1253 56.1144 65.1214 56.1346 65.1214C56.2516 65.1175 56.3652 65.1091 56.4744 65.1013C56.5348 65.0974 56.5998 65.0935 56.6564 65.089C56.7818 65.0767 56.8988 65.0689 57.0163 65.0566C57.3881 65.0204 57.7156 64.9718 58.0028 64.9278H58.0068C58.3948 64.8675 58.7021 64.8027 58.9166 64.7542C58.8925 64.8106 58.8477 65.0243 58.767 65.3462C58.6903 65.6325 58.5812 66.0069 58.4272 66.4259C58.2699 66.865 58.0594 67.3488 57.7923 67.8359C57.7884 67.8359 57.7884 67.8398 57.7884 67.8398C57.4407 68.4725 56.9839 69.1092 56.3938 69.6571C56.3899 69.661 56.3859 69.661 56.3859 69.6649ZM53.3419 71.0146C53.2568 70.9945 53.1762 70.9661 53.0995 70.9298C53.1398 71.0185 53.1762 71.1073 53.2086 71.196H53.2126C53.2652 71.2083 53.3178 71.2161 53.3744 71.2283L53.3419 71.0146Z" fill="#FC5135"/>
<path d="M48.2575 63.6864L48.168 63.6478C48.1954 63.664 48.225 63.6757 48.2575 63.6864Z" fill="#EF7950"/>
<path d="M53.3721 63.1428C53.0194 63.3341 52.5765 63.6416 52.1751 63.7052C51.7765 63.7682 51.3907 63.4692 51.071 63.2476C50.5083 62.8604 50.5055 62.8024 49.9126 63.1277C49.5437 63.3308 48.7106 63.8252 48.2571 63.6868L49.7995 64.3463C49.86 64.4825 50.7603 64.4746 51.0122 64.5081C51.5536 64.5812 52.095 64.6532 52.6364 64.7257C53.2629 64.81 53.8782 64.8368 54.5025 64.8959C54.9532 64.9394 59.309 65.0477 60.4131 63.4407C59.3331 63.2973 56.499 65.0984 53.3721 63.1428Z" fill="#FC5135"/>
<path d="M46.5287 51.7005L46.3977 51.8919C46.9307 51.2229 49.6259 50.8613 50.1147 51.6202C50.595 48.3739 47.2554 50.5042 46.5287 51.7005Z" fill="#602618"/>
<path d="M63.3087 53.1942L63.4101 53.4313C62.9622 52.5698 59.7378 51.0812 58.8918 51.5934C59.3252 48.3086 62.7869 51.7496 63.3087 53.1942Z" fill="#602618"/>
<path d="M63.6432 57.9571C63.1757 56.0204 61.4827 53.105 58.1066 55.8295C57.0222 56.5214 56.1521 57.4867 55.9511 57.7166C55.9376 57.7317 55.9271 57.745 55.9198 57.7562C55.9108 57.7635 55.9075 57.7674 55.9075 57.7674C55.9707 57.7925 56.0346 57.8176 56.0973 57.841C56.3654 57.9465 56.633 58.048 56.9001 58.1446C57.0989 58.216 57.2981 58.2863 57.4986 58.3516C57.5658 58.3744 57.6324 58.3962 57.699 58.4174C57.7657 58.4386 57.8323 58.4598 57.8995 58.4816C57.9807 58.5078 58.0641 58.5323 58.1458 58.5569L58.4291 58.64C58.5864 58.6835 58.7438 58.7271 58.9033 58.7673C58.9352 58.7756 58.9666 58.784 58.9996 58.7912C59.0942 58.8158 59.1883 58.8376 59.2829 58.8582C59.2919 58.861 59.2997 58.8627 59.3087 58.8643C59.396 58.885 59.4822 58.904 59.569 58.9213C59.6244 58.9341 59.6804 58.9447 59.7375 58.9553C59.7986 58.9675 59.8596 58.9781 59.9184 58.9887C59.9923 59.0021 60.0678 59.0161 60.1434 59.0278C60.224 59.0418 60.3075 59.0552 60.3903 59.0663C60.4032 59.068 60.4183 59.0708 60.4312 59.0719C60.4665 59.0764 60.4995 59.0825 60.5342 59.0847C60.6025 59.0953 60.6708 59.1037 60.7386 59.1099C60.8763 59.1271 61.0146 59.1405 61.1529 59.1523C61.2228 59.1595 61.2929 59.164 61.3606 59.1668C61.4284 59.1695 61.4983 59.1746 61.5683 59.1774C61.6288 59.1785 61.6893 59.1824 61.752 59.1835C61.7671 59.1846 61.7811 59.1846 61.7962 59.1841C61.9283 59.1868 62.0621 59.1868 62.1965 59.1857C62.4865 59.1829 62.7754 59.1651 63.0694 59.1366C63.1864 59.1227 63.3051 59.1098 63.4221 59.0931H63.4276C63.5446 59.0786 63.6611 59.0596 63.7775 59.039C63.7787 59.0066 63.7809 58.9731 63.7815 58.9402C63.7877 58.6054 63.7428 58.2768 63.6432 57.9571Z" fill="white"/>
<path d="M61.0841 56.8762C61.13 58.1495 60.4721 59.2052 59.6144 59.2359C58.7572 59.266 58.025 58.2589 57.9791 56.9867C57.9332 55.7134 58.5916 54.6578 59.4487 54.6276C60.3065 54.5969 61.0382 55.6035 61.0841 56.8762Z" fill="#412626"/>
<path d="M60.5283 56.8104C60.5602 57.697 60.1387 58.4312 59.5855 58.4508C59.0335 58.4703 58.5592 57.7678 58.5273 56.8812C58.4954 55.9946 58.9176 55.2609 59.4696 55.2413C60.0227 55.2218 60.4964 55.9243 60.5283 56.8104Z" fill="#262125"/>
<path d="M61.4761 55.9562L59.7405 56.3467C59.7405 56.3467 61.0528 57.0732 61.4094 56.8272C61.5897 56.7022 61.4761 55.9562 61.4761 55.9562Z" fill="white"/>
<path d="M63.7775 59.0401C63.7904 58.779 63.7468 58.3934 63.6432 57.9571C63.1757 56.0204 61.4827 53.105 58.1066 55.8295C57.0356 56.6938 56.0407 57.6407 55.9198 57.7562C55.9108 57.7635 55.9075 57.7674 55.9075 57.7674C55.9075 57.7674 58.4117 51.3552 62.2463 52.7217C64.1711 53.4057 64.3732 57.4348 63.7775 59.0401Z" fill="#EF7950"/>
<path d="M63.4217 59.0947C60.2142 60.3714 57.3163 58.8442 56.0969 57.8415C56.3651 57.947 56.6327 58.0485 56.8998 58.1451C57.0985 58.2165 57.2978 58.2868 57.4982 58.3521C57.5654 58.3749 57.6321 58.3967 57.6987 58.4179C57.7653 58.4391 57.832 58.4603 57.8992 58.4821C57.9803 58.5083 58.0637 58.5329 58.1455 58.5574L58.4287 58.6406C58.5861 58.6841 58.7434 58.7276 58.903 58.7678C58.9349 58.7761 58.9662 58.7845 58.9993 58.7918C59.0939 58.8163 59.1879 58.8381 59.2826 58.8587C59.2915 58.8615 59.2994 58.8632 59.3083 58.8648C59.3957 58.8855 59.4819 58.9045 59.5687 58.9218C59.6241 58.9346 59.6801 58.9452 59.7372 58.9558C59.7982 58.9681 59.8592 58.9787 59.918 58.9893C59.9919 59.0027 60.0675 59.0166 60.1431 59.0283C60.2237 59.0423 60.3072 59.0557 60.39 59.0668C60.4029 59.0685 60.418 59.0713 60.4309 59.0724C60.4662 59.0769 60.4992 59.083 60.5339 59.0853C60.6022 59.0959 60.6705 59.1042 60.7382 59.1104C60.876 59.1276 61.0142 59.141 61.1525 59.1528C61.2225 59.16 61.2925 59.1645 61.3603 59.1673C61.428 59.17 61.498 59.1751 61.568 59.1779C61.6285 59.179 61.6889 59.1829 61.7516 59.184C61.7667 59.1851 61.7807 59.1851 61.7958 59.1846C61.928 59.1873 62.0618 59.1873 62.1961 59.1862C62.4861 59.1834 62.7751 59.1656 63.069 59.1372C63.1866 59.1249 63.3053 59.1115 63.4217 59.0947Z" fill="#EF7950"/>
<path d="M45.7125 56.2674C46.4834 54.7905 48.3943 52.76 50.3662 55.628C51.0391 56.4008 51.4904 57.3532 51.5934 57.5781C51.6007 57.5937 51.6057 57.606 51.6091 57.6166C51.6141 57.6244 51.6158 57.6289 51.6158 57.6289C51.5626 57.6361 51.5089 57.6445 51.4563 57.6512C51.2306 57.6836 51.0055 57.7142 50.7821 57.7394C50.6158 57.7583 50.4507 57.7762 50.285 57.7901C50.2296 57.7957 50.1741 57.8002 50.1187 57.8041C50.0638 57.808 50.0084 57.8125 49.9535 57.8169C49.8858 57.8219 49.8175 57.8253 49.7503 57.8292L49.5174 57.8403C49.3881 57.8454 49.2598 57.8498 49.1305 57.851C49.1048 57.8515 49.0795 57.8521 49.0527 57.8515C48.9754 57.8526 48.8993 57.8526 48.8237 57.8504C48.8159 57.8515 48.8103 57.8515 48.803 57.8504C48.7325 57.8504 48.663 57.8482 48.5936 57.8454C48.5488 57.8448 48.5046 57.8426 48.4587 57.8403C48.41 57.8381 48.3612 57.8348 48.3142 57.832C48.2554 57.8286 48.195 57.8247 48.1351 57.8197C48.0707 57.8152 48.0046 57.8102 47.9397 57.803C47.9296 57.8013 47.9179 57.8007 47.9078 57.7996C47.8803 57.7957 47.854 57.794 47.8266 57.7901C47.7723 57.7846 47.7191 57.7779 47.6659 57.7701C47.5579 57.7567 47.4503 57.7405 47.3434 57.7232C47.2885 57.7142 47.2348 57.7048 47.1827 57.6936C47.1306 57.683 47.0769 57.673 47.0231 57.6624C46.9767 57.6512 46.9302 57.6423 46.8826 57.6317C46.8709 57.63 46.8603 57.6267 46.8491 57.6233C46.7483 57.5999 46.647 57.5736 46.5456 57.5469C46.3267 57.4883 46.1117 57.4169 45.895 57.3365C45.8088 57.303 45.722 57.2684 45.6369 57.2316L45.633 57.2299C45.5474 57.1953 45.4634 57.1574 45.3794 57.1178C45.3861 57.091 45.3911 57.0642 45.3978 57.0374C45.4628 56.7646 45.5681 56.5068 45.7125 56.2674Z" fill="white"/>
<path d="M49.2955 55.6766C49.3414 56.9493 48.6836 58.0055 47.8264 58.0362C46.9687 58.0669 46.2369 57.0598 46.191 55.787C46.1451 54.5143 46.8029 53.4586 47.6607 53.428C48.5178 53.3973 49.2502 54.4044 49.2955 55.6766Z" fill="#412626"/>
<path d="M48.7406 55.6113C48.7726 56.4979 48.3504 57.2322 47.7984 57.2517C47.2458 57.2712 46.7721 56.5687 46.7402 55.6821C46.7083 54.7961 47.1304 54.0618 47.683 54.0423C48.2356 54.0222 48.7093 54.7246 48.7406 55.6113Z" fill="#262125"/>
<path d="M49.688 54.7565L47.9524 55.1476C47.9524 55.1476 49.2647 55.8735 49.6213 55.6269C49.8016 55.5031 49.688 54.7565 49.688 54.7565Z" fill="white"/>
<path d="M45.3768 57.1189C45.4233 56.9047 45.5397 56.6011 45.7122 56.268C46.4831 54.7911 48.394 52.7606 50.3659 55.6286C50.9918 56.5392 51.5416 57.5006 51.6082 57.6172C51.6133 57.625 51.6149 57.6295 51.6149 57.6295C51.6149 57.6295 51.0976 51.9449 47.8973 52.3009C46.2916 52.4777 45.2716 55.7011 45.3768 57.1189Z" fill="#EF7950"/>
<path d="M45.6348 57.2322C47.7908 58.8943 50.3153 58.2248 51.4552 57.6512C51.2296 57.6836 51.0045 57.7142 50.7811 57.7393C50.6148 57.7583 50.4497 57.7762 50.284 57.7901C50.2286 57.7957 50.1731 57.8002 50.1177 57.8041C50.0628 57.808 50.0074 57.8124 49.9525 57.8169C49.8848 57.8219 49.8165 57.8253 49.7493 57.8292L49.5164 57.8403C49.387 57.8454 49.2589 57.8498 49.1295 57.8509C49.1038 57.8515 49.0786 57.8521 49.0517 57.8515C48.9744 57.8526 48.8983 57.8526 48.8227 57.8504C48.8149 57.8515 48.8092 57.8515 48.802 57.8504C48.7314 57.8504 48.662 57.8481 48.5926 57.8454C48.5478 57.8448 48.5036 57.8426 48.4576 57.8403C48.4089 57.8381 48.3603 57.8348 48.3132 57.832C48.2544 57.8286 48.1939 57.8247 48.134 57.8197C48.0696 57.8152 48.0036 57.8102 47.9386 57.803C47.9286 57.8013 47.9168 57.8007 47.9067 57.7996C47.8793 57.7957 47.853 57.794 47.8256 57.7901C47.7713 57.7845 47.7181 57.7779 47.6649 57.77C47.5569 57.7567 47.4493 57.7405 47.3424 57.7232C47.2875 57.7142 47.2338 57.7048 47.1817 57.6936C47.1297 57.683 47.0759 57.6729 47.0221 57.6623C46.9757 57.6512 46.9292 57.6423 46.8816 57.6317C46.8699 57.63 46.8592 57.6266 46.848 57.6233C46.7472 57.5999 46.6459 57.5736 46.5446 57.5468C46.3256 57.4883 46.1107 57.4168 45.894 57.3365C45.8067 57.303 45.7193 57.269 45.6348 57.2322Z" fill="#EF7950"/>
<path d="M63.7744 78.2214C62.9122 77.4123 60.4146 76.7244 59.3631 77.1105L54.6205 79.0957C54.2812 80.5637 52.7784 88.5728 55.6321 91.486C60.8064 89.4014 68.4387 82.5998 63.7744 78.2214Z" fill="#F9AE7A"/>
<path d="M71.4084 55.8407L65.8029 58.4933C69.0474 63.6406 66.3466 70.6425 64.2487 75.7697C62.7858 79.3446 61.0031 82.4335 59.927 86.4487L61.6318 87.1316C63.4934 81.8778 67.3929 77.6423 69.4706 75.0656C71.5533 72.4822 72.8976 69.2052 73.2694 65.892C73.5935 63.0011 73.2117 58.2311 71.4084 55.8407Z" fill="#4C1B05"/>
<path d="M62.1769 92.0825C62.3695 93.6236 61.921 95.3175 61.3001 96.6924C61.2229 95.8409 61.1641 94.9744 60.8595 94.1754C60.6552 96.0295 59.9352 97.6359 59.1262 99.2551C59.0836 98.0884 57.7187 93.912 57.5244 92.8195C57.4449 92.3759 57.4057 91.9597 57.3984 91.5658C57.325 88.1432 59.7235 86.5619 60.8802 85.5303L61.7061 85.619L62.4484 85.6976C61.2167 87.5121 61.9278 90.0888 62.1769 92.0825Z" fill="#282424"/>
<path d="M60.9987 88.8133C60.9562 90.0358 61.5049 91.6796 61.1701 92.7983C61.0827 92.1288 60.5408 91.3124 60.1584 90.7388C60.2172 91.7443 60.075 92.6398 59.963 93.6102C59.8678 93.2581 59.7122 92.93 59.4782 92.6382C59.5521 93.811 58.9614 94.9521 58.9664 96.1009C58.7621 94.4711 57.6362 93.18 57.3993 91.5658C57.326 88.1432 59.7245 86.5619 60.8812 85.5302L61.707 85.6189C61.6057 85.9693 61.5155 86.3192 61.4271 86.6171C61.2093 87.3347 61.0251 88.0695 60.9987 88.8133Z" fill="#131312"/>
<path d="M65.1054 75.1207C65.1054 75.1207 59.7441 80.3082 60.847 86.9128C61.964 86.6991 70.4315 83.7408 65.1054 75.1207Z" fill="#131312"/>
<path d="M65.9253 73.9563C65.9253 73.9563 60.5634 79.1448 61.6663 85.7489C62.7844 85.5358 71.2508 82.5769 65.9253 73.9563Z" fill="#282424"/>
<path d="M56.5818 85.1075C56.7761 85.1872 56.9805 85.2698 57.172 85.334C57.0634 85.3842 56.8361 85.2972 56.7023 85.3519C56.5763 85.4049 56.2728 86.6899 56.405 87.1184C56.4671 87.3187 56.4643 87.3237 56.6306 87.3611C56.9956 87.4453 59.5637 87.0247 60.2092 87.5056L60.4769 86.2078C60.4612 86.1447 60.3957 86.0114 60.2837 85.8356C59.8784 85.2023 58.8499 84.0289 57.2795 83.7683C57.2224 83.7583 57.1646 83.7494 57.107 83.7427C56.8231 84.1762 56.719 84.6181 56.5818 85.1075Z" fill="#664472"/>
<path d="M56.5818 85.1073C56.7761 85.1871 56.9805 85.2697 57.172 85.3338C57.0634 85.384 56.8361 85.297 56.7023 85.3517C56.5763 85.4047 56.2728 86.6897 56.405 87.1182C56.4671 87.3185 56.4643 87.3235 56.6306 87.3609C56.9956 87.4452 59.5637 87.0245 60.2092 87.5055L60.4769 86.2076C60.4612 86.1446 60.3957 86.0112 60.2837 85.8355C59.8179 85.4349 59.2261 85.1419 58.687 84.9483C59.0374 85.234 59.3471 85.6564 59.6158 86.0129C59.407 85.9716 59.2133 85.9331 59.0067 85.9013C59.108 85.9989 59.2395 86.0503 59.3493 86.1429C59.4618 86.24 59.534 86.3627 59.6382 86.4626C59.4898 86.5848 59.2782 86.6049 59.0912 86.6484C58.823 86.7092 58.547 86.7913 58.2727 86.8281C57.8583 86.885 57.3858 86.8705 57.009 86.6691C56.8814 86.6004 56.7364 86.4593 56.6765 86.322C56.6166 86.1858 56.5802 85.7361 56.7207 85.6201C56.8142 85.5425 57.2218 85.5777 57.3517 85.5749C57.5767 85.5676 57.8029 85.6145 58.0196 85.6134C57.7413 85.2769 57.2442 85.1809 57.1194 84.7586C57.0186 84.4199 57.1143 84.0778 57.2789 83.7676C57.2218 83.7576 57.1641 83.7487 57.1064 83.742C56.8231 84.1761 56.719 84.618 56.5818 85.1073Z" fill="#473051"/>
<path d="M61.1166 87.7727C60.4604 88.1889 59.6559 88.2866 59.367 87.4022C59.2242 86.9692 59.203 86.3292 59.3698 85.7986C59.4857 85.4292 59.6917 85.1139 60.0109 84.956C60.4744 84.725 61.4593 84.6865 62.1183 84.8874C62.471 84.9945 62.733 85.1692 62.7716 85.4208C62.883 86.1294 61.5281 87.511 61.1166 87.7727Z" fill="#664472"/>
<path d="M61.1166 87.7727C60.4604 88.1889 59.6559 88.2866 59.367 87.4022C59.2242 86.9692 59.203 86.3292 59.3698 85.7986C59.4056 86.2807 59.5764 86.7388 59.9224 87.0719C60.1537 86.6071 60.3188 86.0257 60.783 85.7115C60.5808 86.1797 60.5388 86.5669 60.5483 87.0674C61.1043 86.7583 61.5231 86.4475 61.8641 85.8862C62.0315 85.6111 62.1395 85.3076 62.13 84.9834C62.1289 84.9594 62.1261 84.927 62.1183 84.8869C62.471 84.994 62.733 85.1686 62.7716 85.4203C62.883 86.1295 61.5281 87.511 61.1166 87.7727Z" fill="#473051"/>
<path d="M66.1467 87.9886C65.9221 87.9088 65.6864 87.824 65.4765 87.7331C65.5297 87.8569 65.7878 87.9563 65.8583 88.1036C65.9244 88.2431 65.1971 89.5565 64.7587 89.8176C64.5533 89.9393 64.5521 89.9448 64.3836 89.8511C64.0113 89.6452 62.1681 87.3464 61.2561 87.2627L62.0226 85.966C62.0836 85.9247 62.241 85.8616 62.47 85.798C63.2958 85.5715 65.0594 85.3611 66.5822 86.3303C66.6376 86.3655 66.6931 86.4017 66.7474 86.4391C66.655 87.0205 66.4053 87.4719 66.1467 87.9886Z" fill="#664472"/>
<path d="M66.1467 87.9886C65.9221 87.9088 65.6864 87.824 65.4765 87.7331C65.5297 87.857 65.7878 87.9563 65.8583 88.1036C65.9244 88.2431 65.1971 89.5565 64.7587 89.8176C64.5533 89.9393 64.5521 89.9449 64.3836 89.8511C64.0113 89.6452 62.1681 87.3464 61.2561 87.2627L62.0226 85.966C62.0836 85.9247 62.241 85.8617 62.47 85.798C63.1687 85.8131 63.892 86.0145 64.4944 86.2595C63.9805 86.2349 63.3971 86.3566 62.8971 86.4537C63.1043 86.5775 63.2975 86.6908 63.4962 86.8208C63.3361 86.8264 63.186 86.77 63.0225 86.765C62.8534 86.7616 62.6989 86.8102 62.5343 86.8158C62.5663 87.0317 62.7291 87.2091 62.8534 87.3871C63.0332 87.641 63.2034 87.9194 63.4066 88.1577C63.7123 88.5198 64.1216 88.8652 64.593 88.9807C64.7531 89.0203 64.9832 89.0103 65.1383 88.94C65.2923 88.8708 65.6674 88.5187 65.6377 88.315C65.6187 88.1789 65.2475 87.8999 65.1406 87.7989C64.9564 87.622 64.7296 87.4904 64.5476 87.3258C65.0392 87.2527 65.5319 87.5489 65.9602 87.2867C66.304 87.0769 66.4842 86.717 66.5828 86.3303C66.6382 86.3655 66.6936 86.4018 66.7479 86.4391C66.655 87.0206 66.4053 87.4719 66.1467 87.9886Z" fill="#473051"/>
<path d="M67.9699 69.3759C67.9699 69.3759 61.8331 75.3144 63.0951 82.8743C64.3744 82.6299 74.0664 79.2436 67.9699 69.3759Z" fill="#131312"/>
<path d="M68.9095 68.0434C68.9095 68.0434 62.7721 73.9825 64.0347 81.5418C65.3134 81.298 75.0054 77.9111 68.9095 68.0434Z" fill="#282424"/>
<path d="M69.2289 64.15C69.2289 64.15 63.6072 71.2713 66.0113 79.0584C67.3236 78.6209 77.0542 73.6884 69.2289 64.15Z" fill="#131312"/>
<path d="M70.0286 62.6139C70.0286 62.6139 64.4064 69.7352 66.811 77.5228C68.1239 77.0854 77.8539 72.1529 70.0286 62.6139Z" fill="#282424"/>
<path d="M66.9418 58.0754C66.9418 58.0754 64.3099 67.4772 69.9405 74.2359C71.0648 73.2594 78.6941 64.3431 66.9418 58.0754Z" fill="#131312"/>
<path d="M67.099 56.2173C67.099 56.2173 64.4671 65.6197 70.0978 72.3778C71.222 71.4019 78.8513 62.4855 67.099 56.2173Z" fill="#282424"/>
<path d="M64.4622 52.5766C64.4622 52.5766 64.428 62.3366 71.6565 67.369C72.4812 66.1314 77.463 55.521 64.4622 52.5766Z" fill="#131312"/>
<path d="M64.1184 50.7437C64.1184 50.7437 64.0848 60.5037 71.3128 65.536C72.1375 64.2984 77.1192 53.6881 64.1184 50.7437Z" fill="#282424"/>
<path d="M70.2964 46.9628C69.5142 44.9056 68.1291 42.4678 66.0279 41.2375C61.1206 38.364 54.9032 39.3086 50.4651 42.3696L52.9229 44.9904C52.7102 45.1388 52.5103 44.8794 52.4733 45.2209C56.4708 45.5489 59.9851 48.0615 62.1283 51.4445C63.8891 54.2248 63.8651 57.3974 65.3628 60.0628C66.595 62.2551 69.2925 63.1417 71.4256 61.3478C73.7519 59.3916 73.6321 55.3614 73.5834 52.7345C71.0701 52.1843 71.0253 48.88 70.2964 46.9628Z" fill="#131312"/>
<path d="M64.8554 53.4353C64.8436 53.7081 64.8296 53.9804 64.8127 54.2527C64.8571 53.9827 64.8688 53.7098 64.8554 53.4353Z" fill="#592009"/>
<path d="M64.6213 43.9024C65.6291 43.9665 66.465 44.192 67.1895 44.9642C66.147 43.4554 65.3481 42.1464 63.4714 41.5567C61.654 40.9859 59.727 41.1588 57.8374 41.0378L54.2961 43.7941C56.6666 44.5307 59.0831 45.4658 61.0107 47.1553C62.6103 48.5569 64.7383 51.0533 64.8553 53.4353C64.9606 50.988 64.8285 48.5257 63.6231 46.3022C64.6846 46.7408 66.5787 48.3265 66.6347 49.5406C66.9247 47.9203 65.9661 44.8682 64.6213 43.9024Z" fill="#282424"/>
<path d="M70.1661 57.9989C69.2004 57.5274 67.8623 58.1769 67.1887 58.7817C66.2028 59.6672 64.8563 63.0022 65.8277 63.8927C67.3841 65.3183 70.5513 62.591 71.0205 60.6297C71.217 59.8106 71.0395 58.4257 70.1661 57.9989Z" fill="#F9AE7A"/>
<path d="M70.625 59.8028C70.4167 57.4309 67.062 58.3538 66.8571 60.276C67.5944 59.9205 68.0558 60.9818 67.7932 61.5515C67.5004 62.1842 66.5727 62.2384 66.2586 61.6039C66.234 62.6624 67.7769 62.5514 68.3077 61.9823C68.9694 61.2714 68.6072 60.0048 67.6778 59.7247C68.4023 58.486 70.5898 58.8732 70.522 60.3892L70.625 59.8028Z" fill="#EF7950"/>
<path d="M57.3757 39.6624C54.2163 37.8389 46.5662 39.7098 42.2815 46.2263C40.028 49.6534 37.5478 57.9877 42.1057 60.6409C40.9003 55.4534 46.3719 50.5974 50.6331 49.7884C50.2087 50.7526 49.8073 51.7971 49.3706 52.7624C55.9911 48.8588 57.4216 39.9687 57.3757 39.6624Z" fill="#131312"/>
<path d="M56.0418 40.2259C56.0418 40.2259 49.2153 40.246 45.3723 45.8274C46.7955 44.3962 49.3967 43.8801 51.3478 43.8795C49.9213 44.2517 48.0854 45.5579 47.1958 46.6839C47.8699 46.3324 48.7399 46.218 49.4879 46.2637C49.073 46.3586 48.8469 47.1263 48.5278 47.5487C48.9975 47.2413 54.1998 48.9113 56.0418 40.2259Z" fill="#282424"/>
<path d="M70.5908 91.2354C70.5779 91.7354 70.5673 92.2046 70.5522 92.632L67.4192 92.7676C67.4377 92.4942 67.4545 92.2225 67.4713 91.9491C67.6152 89.5599 67.7053 87.1438 68.184 84.8166C68.4829 83.3664 69.2326 81.0352 70.4626 79.8774C70.5001 79.8919 70.5371 79.9081 70.5741 79.9226C70.5774 79.9248 70.5808 79.9265 70.5841 79.9271C70.6519 79.9555 70.7174 79.9846 70.7812 80.0147C70.8977 80.0672 71.0135 80.1202 71.1277 80.176C71.1848 80.2055 71.2419 80.234 71.2968 80.263C71.4581 80.3467 71.6171 80.4349 71.7739 80.5264C71.8254 80.5576 71.8791 80.5888 71.9306 80.6217C72.1311 80.7456 72.3254 80.8762 72.5135 81.0168C72.5717 81.0586 72.6277 81.1005 72.6836 81.1457C72.7413 81.1892 72.799 81.2344 72.855 81.2813C72.9127 81.3281 72.9686 81.375 73.0224 81.4236C73.0666 81.4615 73.1097 81.4983 73.1517 81.5379C73.1579 81.5435 73.1663 81.5508 73.173 81.5564C70.8422 83.6091 70.6703 88.0327 70.5908 91.2354Z" fill="#352020"/>
<path opacity="0.3" d="M75.0909 95.3823C75.087 95.3945 75.087 95.4063 75.0831 95.4185C75.0388 95.6161 74.998 95.8091 74.9577 96.0027C74.8042 96.6996 74.6503 97.3564 74.5047 97.9528C74.3189 98.7145 74.1447 99.3751 73.9874 99.9107C73.8177 100.487 73.6638 100.91 73.5384 101.139C73.1784 101.792 72.8307 102.445 72.4993 103.097C72.4388 103.117 72.3778 103.141 72.3173 103.161C72.2809 103.178 72.2367 103.19 72.2003 103.202C72.1561 103.222 72.1112 103.238 72.0631 103.25C71.9617 103.286 71.8571 103.327 71.7518 103.359C71.5458 103.428 71.3353 103.5 71.1253 103.564C71.0324 103.597 70.9394 103.625 70.8465 103.653C70.8023 103.669 70.7497 103.689 70.7049 103.702C70.5756 103.738 70.454 103.778 70.3247 103.814C70.3045 103.818 70.2844 103.827 70.2643 103.834C70.2357 103.842 70.2116 103.851 70.1875 103.854C70.0705 103.895 69.949 103.927 69.8276 103.963C69.7509 103.987 69.6697 104.012 69.589 104.036C69.5364 104.052 69.4798 104.068 69.4233 104.084C69.3791 104.097 69.3304 104.108 69.2817 104.121C69.144 104.161 69.0068 104.197 68.8651 104.233C69.2167 103.17 69.5319 102.106 69.8113 101.082C70.1187 99.9504 70.0985 98.9025 69.9244 97.8875C69.8718 97.5935 69.8074 97.3034 69.7346 97.0171C69.4312 95.8286 68.9743 94.6764 68.6512 93.4718C68.6512 93.4718 68.6512 93.4679 68.6512 93.464C68.5824 93.2185 68.5219 92.9724 68.4693 92.7224C68.4043 92.4122 68.3523 92.102 68.3153 91.7839C68.3114 91.78 68.3114 91.7761 68.3114 91.7716C68.251 91.2315 68.2386 90.6797 68.2913 90.0994L68.6753 90.3047L70.4748 91.2639L70.4787 91.2678L70.5879 91.3242L70.7009 91.3844C71.889 93.0215 73.2153 94.3991 75.0909 95.3823Z" fill="#7C4949"/>
<path fill-rule="evenodd" clip-rule="evenodd" d="M85.4027 94.6745C85.5296 94.9526 85.5651 95.288 85.4782 95.6244C85.2938 96.3405 84.6294 96.7905 83.994 96.6283C83.7499 96.5659 83.5462 96.4203 83.3977 96.2264C83.3899 96.3052 83.3771 96.384 83.3564 96.4656C83.1716 97.1813 82.5081 97.6303 81.8723 97.4681C81.4916 97.371 81.2084 97.0746 81.0824 96.6988C81.081 96.8161 81.0663 96.9375 81.0355 97.0571C80.8507 97.7747 80.1868 98.2237 79.5509 98.0615C79.0309 97.9286 78.6925 97.4264 78.6889 96.8555C78.4084 97.354 77.8692 97.6317 77.3487 97.4988C76.8048 97.36 76.4604 96.8184 76.488 96.215C76.2351 96.363 75.9396 96.417 75.6508 96.3433C75.283 96.2493 75.0053 95.9712 74.8725 95.6138C74.7768 95.354 74.7575 95.0539 74.8352 94.7515C74.917 94.4349 75.0936 94.1691 75.3189 93.9872C74.74 92.2621 74.9736 89.8488 75.494 87.8286C76.3372 84.5571 77.9864 82.0247 80.8856 82.7651C81.1288 82.8274 81.3684 82.931 81.6015 83.0703C83.817 84.3839 85.5094 88.8958 85.3991 92.0197C85.5062 92.0142 85.6138 92.022 85.7195 92.0491C86.3554 92.2113 86.7195 92.9242 86.5351 93.6404C86.3843 94.2246 85.9154 94.6314 85.4027 94.6745Z" fill="#FFF5F5"/>
<g opacity="0.2">
<path d="M85.4021 94.6745C85.529 94.9526 85.5644 95.288 85.4775 95.6243C85.2932 96.3405 84.6288 96.7904 83.9934 96.6282C83.7493 96.5659 83.5456 96.4202 83.3971 96.2264C83.3893 96.3052 83.3764 96.384 83.3557 96.4656C83.1709 97.1813 82.5075 97.6303 81.8716 97.4681C81.4909 97.371 81.2077 97.0745 81.0818 96.6988C81.0804 96.8161 81.0656 96.9375 81.0348 97.0571C80.85 97.7747 80.1861 98.2237 79.5503 98.0615C79.0303 97.9286 78.6919 97.4264 78.6882 96.8555C78.4078 97.354 77.8685 97.6317 77.3481 97.4988C76.8042 97.36 76.4598 96.8184 76.4874 96.215C76.2345 96.363 75.9389 96.417 75.6502 96.3433C75.2824 96.2493 75.0047 95.9712 74.8718 95.6138C75.195 95.8424 75.5794 95.9025 76.0171 95.5886C76.4989 96.4592 77.7664 96.4088 78.4699 95.8255C78.9549 96.9137 80.2022 96.5916 80.6629 95.6037C81.5521 96.4564 83.0054 95.2257 82.8918 94.0381C82.8426 93.5263 82.5737 92.9696 82.1879 92.6864C81.7102 92.3359 81.2487 92.6195 80.7273 92.4582C82.1443 91.4287 82.8224 89.7022 82.9001 87.8511C82.9672 86.2245 82.4835 84.8041 81.7911 83.4327C81.7502 83.353 81.6863 83.2256 81.6017 83.0707C83.8173 84.3844 85.5097 88.8962 85.3993 92.0202C85.5065 92.0147 85.6141 92.0225 85.7198 92.0495C86.3556 92.2117 86.7198 92.9247 86.5354 93.6408C86.3837 94.2246 85.9147 94.6314 85.4021 94.6745Z" fill="#7C4949"/>
</g>
</g>
<defs>
<filter id="filter0_d_5_703" x="0.9" y="0.400527" width="111.2" height="111.2" filterUnits="userSpaceOnUse" color-interpolation-filters="sRGB">
<feFlood flood-opacity="0" result="BackgroundImageFix"/>
<feColorMatrix in="SourceAlpha" type="matrix" values="0 0 0 0 0 0 0 0 0 0 0 0 0 0 0 0 0 0 127 0" result="hardAlpha"/>
<feOffset/>
<feGaussianBlur stdDeviation="2.55"/>
<feComposite in2="hardAlpha" operator="out"/>
<feColorMatrix type="matrix" values="0 0 0 0 0 0 0 0 0 0 0 0 0 0 0 0 0 0 0.5 0"/>
<feBlend mode="normal" in2="BackgroundImageFix" result="effect1_dropShadow_5_703"/>
<feBlend mode="normal" in="SourceGraphic" in2="effect1_dropShadow_5_703" result="shape"/>
</filter>
</defs>
</svg>
