<svg width="113" height="112" viewBox="0 0 113 112" fill="none" xmlns="http://www.w3.org/2000/svg">
<g filter="url(#filter0_d_5_554)">
<circle cx="56.5" cy="56" r="50" fill="white" stroke="#6F6F6F"/>
<path d="M45.6225 104.806C45.4149 104.761 45.2117 104.716 45.004 104.666C43.2517 104.26 41.5088 103.749 39.7884 103.135C39.6621 103.09 39.5357 103.045 39.4138 103C39.2331 102.936 39.0573 102.869 38.881 102.801C38.3438 102.598 37.8059 102.386 37.2731 102.16C37.2644 102.155 37.255 102.151 37.2462 102.146C36.9798 102.042 36.7178 101.929 36.4514 101.807C36.3882 101.78 36.3294 101.753 36.2706 101.721C36.1218 101.654 35.9723 101.591 35.8279 101.518C36.2388 96.5691 36.614 91.7552 36.8891 87.6779H41.9466L46.2367 95.5711C46.4487 97.202 46.1729 100.634 45.6225 104.806Z" fill="#EA6CA0"/>
<path d="M45.0357 101.835C45.0219 102.774 45.0132 103.718 45.0044 104.666C43.2521 104.26 41.5092 103.749 39.7888 103.135C39.6625 103.09 39.5361 103.045 39.4142 103C39.0621 101.072 38.6919 99.1249 38.3623 97.1426L45.0357 101.835Z" fill="#DB5290"/>
<path d="M55.435 105.931C54.2743 105.917 53.1136 105.858 51.9579 105.764C51.8222 105.751 51.6827 105.741 51.547 105.723C50.0524 105.587 48.5665 105.38 47.0762 105.1C46.963 105.077 46.8461 105.055 46.7285 105.032C46.6247 105.014 46.5209 104.996 46.4171 104.978C46.3808 104.969 46.3401 104.955 46.3045 104.951C46.1281 104.914 45.9568 104.879 45.7717 104.838C45.7216 104.829 45.6722 104.815 45.6228 104.806C45.4152 104.761 45.212 104.716 45.0043 104.666C43.252 104.26 41.5091 103.749 39.7887 103.135C39.6624 103.09 39.536 103.045 39.4141 103C39.2333 102.936 39.0576 102.869 38.8813 102.801C38.3441 102.598 37.8062 102.386 37.2734 102.16C37.2646 102.155 37.2553 102.151 37.2465 102.146C36.9801 102.042 36.7181 101.929 36.4517 101.807C36.3885 101.78 36.3297 101.753 36.2709 101.721C36.1221 101.654 35.9726 101.591 35.8282 101.518C35.5886 101.414 35.3497 101.306 35.1146 101.197C34.8982 101.089 34.6856 100.985 34.4736 100.881C33.6518 99.2957 33.0102 97.878 32.8883 96.7399C32.8339 96.2209 39.748 75.8958 41.1113 75.5437C43.6266 74.8977 47.0856 74.293 50.8429 73.8233C54.3062 73.39 58.0272 73.0736 61.4999 72.9516C62.0734 72.9335 62.6381 72.9153 63.1934 72.911C63.9383 72.8972 64.6612 72.8928 65.3654 72.9066C69.0639 72.9472 72.1707 73.2906 73.918 74.0491C73.9224 74.0491 73.9275 74.0535 73.9362 74.0535C74.8305 74.4462 75.3633 74.9477 75.4352 75.5706C75.616 77.1465 74.8705 81.4138 73.9268 87.9344C73.9268 87.9344 73.9224 87.9344 73.9268 87.9387L73.8455 88.5078C73.7598 89.1038 73.6742 89.6822 73.5879 90.2375C73.1951 92.834 72.8112 94.9201 72.4997 95.8369C72.4634 95.9495 72.4272 96.0445 72.3915 96.1214C72.3327 96.2477 72.2652 96.3922 72.1882 96.5504L72.1839 96.5548C72.1839 96.5592 72.1839 96.5642 72.1745 96.5729C72.1339 96.668 72.0794 96.7718 72.03 96.88C72.0031 96.9388 71.9756 96.9975 71.9444 97.0607C71.8812 97.1826 71.8224 97.3133 71.7549 97.449C71.7549 97.4534 71.7549 97.4578 71.7549 97.4578C71.294 98.4196 70.698 99.6797 70.0345 101.197C69.7136 101.923 69.3797 102.709 69.032 103.554C68.9369 103.784 68.8469 104.019 68.7568 104.253C67.6955 104.538 66.6211 104.791 65.5417 105.008C65.533 105.008 65.5236 105.012 65.5149 105.012C63.7669 105.355 62.0058 105.604 60.236 105.752C59.9377 105.784 59.6488 105.802 59.3511 105.82C59.0578 105.847 58.7639 105.861 58.4706 105.869C58.0009 105.901 57.5357 105.91 57.066 105.919C56.9666 105.923 56.8671 105.928 56.7727 105.923C56.6414 105.932 56.5107 105.932 56.38 105.928C56.2761 105.932 56.1723 105.936 56.0641 105.936C55.8546 105.939 55.6426 105.935 55.435 105.931Z" fill="#EA6CA0"/>
<path d="M73.8447 88.5091C73.7603 89.1038 73.674 89.6822 73.5896 90.2375C73.1449 93.1536 72.719 95.4236 72.3901 96.1252C71.9517 97.0614 71.0793 98.8192 70.0336 101.197C69.7128 101.928 69.3776 102.714 69.0312 103.555C67.0456 104.487 64.8105 105.139 62.3559 105.025C59.1909 104.876 56.6618 103.856 54.1741 101.887C56.8638 103.127 74.2137 102.743 73.2218 86.6136L73.8447 88.5091Z" fill="#DB5290"/>
<path d="M62.692 73.0568L61.4857 73.0342L49.878 74.011C49.878 74.011 48.4872 80.8586 48.197 83.168C47.7705 86.5705 47.2639 96.8525 47.2639 96.8525C47.2639 96.8525 64.8565 73.8922 62.692 73.0568Z" fill="#DB5290"/>
<path d="M48.1975 94.2304C48.1975 94.2304 49.4977 77.0133 50.826 74.0323L50.9473 72.5333L50.891 69.4284L50.7466 61.5171L63.3554 57.4736L62.9358 64.1511L61.4868 73.0336C63.65 73.8697 48.1975 94.2304 48.1975 94.2304Z" fill="#F2A782"/>
<path d="M63.577 63.3006C63.577 63.3006 62.7528 68.8775 50.8937 70.364L50.8375 67.2591L50.6924 59.3472L58.968 57.049L61.3344 62.392L61.8341 63.5183C61.6509 63.6515 63.7734 63.1724 63.577 63.3006Z" fill="#EC9469"/>
<path d="M46.9746 59.3805L46.8643 59.3347C46.9017 59.3532 46.9378 59.3687 46.9746 59.3805Z" fill="#EF7950"/>
<path d="M47.1926 59.514L47.0654 59.5072C47.0536 59.5475 47.1165 59.5369 47.1926 59.514Z" fill="#EF7950"/>
<path d="M48.3403 58.8667L48.2886 58.8444C48.3048 58.8537 48.3222 58.8611 48.3403 58.8667Z" fill="#EF7950"/>
<path d="M52.5895 51.7373C53.4925 46.8314 54.7164 41.9524 56.6801 37.3893L52.4237 36.1429C52.8452 36.2086 55.6657 33.6078 56.3761 33.0106C57.1554 32.3558 60.6806 30.2728 61.4448 29.6449C60.1109 28.1697 56.2811 27.8771 54.383 28.0403C51.0942 28.3223 47.5552 31.2934 45.7597 33.9755C42.2895 39.1584 40.217 45.5582 38.4303 51.4915C37.5222 54.507 36.6179 57.5355 35.5191 60.4809C34.9632 61.9705 38.8649 65.2054 40.3195 65.7326C40.5766 65.1066 41.3658 64.0423 41.6203 63.4057C41.4415 64.1955 41.9368 65.1986 41.9474 65.9978C43.5665 66.4255 49.7309 67.6255 50.497 67.1121C51.395 66.5099 51.0892 62.5777 51.2324 61.4746C51.6533 58.2209 51.9954 54.9653 52.5895 51.7373Z" fill="#3D3D3D"/>
<path d="M68.9377 55.3761C67.7758 58.107 61.9998 64.2905 61.8034 64.4181C58.9617 66.2566 54.2201 67.1459 50.8887 67.371C50.4953 67.3985 50.1139 67.4098 49.748 67.406C47.1414 67.3797 39.9646 57.2941 43.3454 48.7024C45.3447 43.6233 45.9463 37.7701 49.8037 33.906C54.3252 29.3754 64.8665 32.9824 66.5607 35.2943C70.3098 40.409 71.301 49.8074 68.9377 55.3761Z" fill="#F2A782"/>
<path d="M49.9952 51.6904C49.4499 51.9862 48.9264 52.1857 49.3504 52.9549C49.9427 54.0267 51.4924 54.0742 52.1303 54.0461C51.7713 53.9079 50.1884 53.1988 49.7838 52.696C49.5049 52.3514 51.8026 50.7105 49.9952 51.6904Z" fill="#F48656"/>
<path d="M46.5651 41.1345L46.4031 41.3133C47.046 40.703 49.8564 40.723 50.246 41.5741C51.2122 38.306 47.4844 40.0114 46.5651 41.1345Z" fill="#3D3D3D"/>
<path d="M64.5625 46.368L64.6314 46.6275C64.2993 45.6764 61.218 43.6784 60.2769 44.0818C61.2012 40.768 64.2399 44.8084 64.5625 46.368Z" fill="#3D3D3D"/>
<path d="M47.3295 56.4218L47.262 56.4061C47.2788 56.4874 49.2138 59.3284 49.6647 60.566C49.9842 61.4421 54.6289 63.8678 57.1392 57.7594C56.6445 58.9632 48.8867 56.9258 47.3295 56.4218Z" fill="#D85039"/>
<path d="M53.4213 61.6021C52.2419 61.998 50.8066 61.5477 50.1193 60.4709C50.1193 60.4709 49.3633 59.2771 49.8135 59.0188C49.8717 58.9844 49.9492 58.9657 50.0518 58.9694C50.8735 58.9869 54.557 59.1839 55.4932 59.3146C55.0517 61.3445 54.5126 61.2388 53.4213 61.6021Z" fill="white"/>
<path d="M56.1975 58.1978C55.8867 58.7994 55.6278 59.3959 54.9199 59.5804C53.9149 59.8412 52.7755 59.8406 51.7392 59.6392C51.06 59.5079 50.4184 59.3697 49.8768 59.0532C49.5347 58.8544 49.2352 58.5861 48.9882 58.2034C48.6655 57.7037 48.3284 57.0121 48.1958 56.3342L55.4477 58.0233L56.1975 58.1978Z" fill="white"/>
<path d="M56.3871 57.915C56.077 58.5166 55.6279 59.3965 54.92 59.5803C53.915 59.8411 52.7756 59.8405 51.7393 59.6391C51.0602 59.5078 50.4185 59.3696 49.877 59.0532C50.1459 59.1351 50.4198 59.1989 50.7125 59.2189C51.4823 59.2733 52.2277 59.3521 53.0063 59.3352C53.6036 59.3202 54.1871 59.262 54.7286 58.9931C55.2008 58.7599 55.3403 58.4109 55.4484 58.0238L56.3871 57.915Z" fill="#E8E6E6"/>
<path d="M63.9247 52.24C63.9584 49.9938 62.934 46.3368 58.4989 48.3723C57.1255 48.8256 55.9092 49.6386 55.6265 49.8343C55.6071 49.8468 55.5915 49.8581 55.5809 49.8681C55.5683 49.8744 55.564 49.8775 55.564 49.8775C55.6259 49.9225 55.6878 49.9675 55.7497 50.0107C56.0117 50.2008 56.2738 50.3865 56.5383 50.5666C56.7341 50.7004 56.931 50.8318 57.1305 50.9593C57.1968 51.0037 57.2637 51.0456 57.33 51.0875C57.3963 51.1294 57.4632 51.1713 57.5302 51.2132C57.6115 51.2645 57.6953 51.3145 57.7772 51.3646L58.0623 51.534C58.2218 51.626 58.3807 51.7173 58.5426 51.8054C58.5745 51.8236 58.6064 51.8404 58.6402 51.8586C58.7359 51.9111 58.8328 51.9618 58.9291 52.0099C58.9385 52.0162 58.946 52.0199 58.9554 52.0243C59.0448 52.0712 59.133 52.1156 59.2231 52.1588C59.28 52.1881 59.3375 52.215 59.3963 52.2432C59.4594 52.2738 59.5226 52.3026 59.5839 52.3301C59.6602 52.3657 59.739 52.402 59.8178 52.4364C59.9022 52.4739 59.9885 52.5114 60.0754 52.5477C60.0892 52.5521 60.1042 52.5602 60.118 52.5652C60.1549 52.579 60.1893 52.5952 60.2268 52.6078C60.2981 52.6384 60.37 52.6665 60.4419 52.6928C60.587 52.7497 60.734 52.8029 60.8803 52.8541C60.9547 52.881 61.0292 52.906 61.1023 52.9279C61.1755 52.9498 61.2499 52.9748 61.3249 52.998C61.3906 53.0161 61.4556 53.0367 61.5232 53.0555C61.5388 53.0611 61.5551 53.0643 61.5707 53.068C61.7139 53.108 61.8596 53.1456 62.0054 53.1825C62.3212 53.26 62.6408 53.3213 62.9685 53.3713C63.0992 53.3894 63.2324 53.4082 63.3643 53.422L63.3699 53.4232C63.5013 53.4395 63.6338 53.4514 63.7658 53.4614C63.7758 53.4263 63.7877 53.3907 63.7977 53.355C63.8996 52.9886 63.9434 52.6171 63.9247 52.24Z" fill="white"/>
<path d="M62.7988 50.7411C62.4917 52.1444 61.4805 53.1156 60.5393 52.9098C59.5981 52.7041 59.0841 51.3996 59.3911 49.9963C59.6976 48.593 60.7094 47.6225 61.6506 47.8282C62.5918 48.034 63.1052 49.3378 62.7988 50.7411Z" fill="#8A4F27"/>
<path d="M62.2134 50.5141C61.9995 51.4916 61.3354 52.1763 60.7287 52.0437C60.1221 51.9112 59.8044 51.0113 60.0183 50.0339C60.2316 49.0571 60.8964 48.3723 61.503 48.5049C62.1084 48.6375 62.4267 49.5373 62.2134 50.5141Z" fill="black"/>
<path d="M63.4832 49.8443L61.4863 49.788C61.4863 49.788 62.7102 50.9474 63.1667 50.7773C63.3981 50.6923 63.4832 49.8443 63.4832 49.8443Z" fill="white"/>
<path d="M63.7668 53.4607C63.8537 53.1787 63.9144 52.746 63.9244 52.2401C63.9582 49.9938 62.9338 46.3368 58.4986 48.3723C57.0915 49.0189 55.7438 49.7756 55.5806 49.8681C55.5681 49.8744 55.5637 49.8775 55.5637 49.8775C55.5637 49.8775 60.0839 43.569 63.8719 46.1304C65.7736 47.4142 64.8643 51.8724 63.7668 53.4607Z" fill="#EC9469"/>
<path d="M63.3646 53.4214C59.5179 53.9223 56.7944 51.4459 55.75 50.0101C56.012 50.2002 56.2741 50.3859 56.5386 50.566C56.7343 50.6998 56.9313 50.8312 57.1308 50.9587C57.1971 51.0031 57.264 51.045 57.3303 51.0869C57.3966 51.1288 57.4635 51.1707 57.5304 51.2126C57.6117 51.2639 57.6956 51.3139 57.7775 51.364L58.0626 51.5334C58.2221 51.6254 58.381 51.7167 58.5429 51.8048C58.5748 51.823 58.6067 51.8398 58.6405 51.858C58.7362 51.9105 58.8331 51.9612 58.9294 52.0093C58.9388 52.0156 58.9463 52.0193 58.9557 52.0237C59.0451 52.0706 59.1333 52.115 59.2233 52.1581C59.2802 52.1875 59.3378 52.2144 59.3966 52.2426C59.4598 52.2732 59.5229 52.302 59.5842 52.3295C59.6605 52.3651 59.7393 52.4014 59.8181 52.4358C59.9025 52.4733 59.9888 52.5108 60.0758 52.5471C60.0895 52.5515 60.1045 52.5596 60.1183 52.5646C60.1552 52.5784 60.1896 52.5946 60.2271 52.6071C60.2984 52.6378 60.3703 52.6659 60.4422 52.6922C60.5873 52.7491 60.7343 52.8023 60.8806 52.8535C60.955 52.8804 61.0294 52.9054 61.1026 52.9273C61.1758 52.9492 61.2502 52.9742 61.3253 52.9974C61.3909 53.0155 61.456 53.0361 61.5235 53.0549C61.5391 53.0605 61.5554 53.0637 61.571 53.0674C61.7142 53.1074 61.86 53.1449 62.0057 53.1818C62.3215 53.2594 62.641 53.3207 62.9687 53.3707C63.1001 53.3888 63.2333 53.4076 63.3646 53.4214Z" fill="#EC9469"/>
<path d="M44.8941 45.3967C46.1467 43.9972 48.794 42.3119 50.1348 45.9946C50.6501 47.027 50.874 48.1933 50.9228 48.4678C50.9265 48.4866 50.9284 48.5016 50.929 48.5141C50.9321 48.5247 50.9334 48.5291 50.9334 48.5291C50.8734 48.5229 50.8127 48.5166 50.7533 48.5085C50.4988 48.4816 50.2455 48.4522 49.9953 48.4172C49.809 48.3922 49.6245 48.3653 49.4394 48.334C49.3775 48.3246 49.3162 48.314 49.2549 48.3034C49.1936 48.2927 49.1323 48.2821 49.071 48.2708C48.996 48.2577 48.9203 48.2427 48.8465 48.2283L48.5901 48.1758C48.4488 48.1451 48.3074 48.1145 48.1667 48.0795C48.1386 48.0732 48.1104 48.0663 48.0817 48.0588C47.9985 48.0382 47.9153 48.0169 47.8334 47.9938C47.8246 47.9926 47.8184 47.9907 47.8109 47.9882C47.7346 47.9682 47.6589 47.9469 47.5839 47.9244C47.5351 47.9106 47.4876 47.8963 47.4388 47.8812C47.3862 47.8656 47.335 47.8481 47.2837 47.8318C47.2212 47.8125 47.1561 47.7912 47.0923 47.7687C47.0235 47.7455 46.9535 47.7218 46.8841 47.6955C46.8734 47.6911 46.8609 47.688 46.8503 47.6836C46.8215 47.6718 46.7928 47.663 46.7646 47.6505C46.7077 47.6299 46.6514 47.608 46.5958 47.5842C46.482 47.5398 46.3694 47.4917 46.2581 47.4429C46.2012 47.4179 46.1449 47.3928 46.0911 47.3666C46.0373 47.3403 45.9816 47.3141 45.926 47.2878C45.8785 47.2628 45.8309 47.2403 45.7822 47.2146C45.7703 47.2096 45.759 47.2027 45.7484 47.1959C45.6452 47.1421 45.542 47.0858 45.4395 47.0283C45.2181 46.9026 45.0036 46.7656 44.7903 46.6162C44.7065 46.5555 44.6215 46.4942 44.5395 46.4304L44.5358 46.4279C44.4526 46.3654 44.3713 46.301 44.2913 46.2341C44.3063 46.2066 44.3188 46.179 44.3338 46.1509C44.4845 45.8701 44.6702 45.6181 44.8941 45.3967Z" fill="white"/>
<path d="M50.1406 46.1222C49.8341 47.5248 48.8223 48.496 47.8811 48.2903C46.9405 48.0845 46.4264 46.7801 46.7329 45.3768C47.0399 43.9735 48.0512 43.0023 48.9924 43.2087C49.9329 43.4144 50.447 44.7183 50.1406 46.1222Z" fill="#8A4F27"/>
<path d="M49.5548 45.8952C49.3415 46.8726 48.6767 47.5574 48.0701 47.4248C47.4635 47.2922 47.1458 46.393 47.3591 45.4155C47.573 44.4381 48.2371 43.7534 48.8437 43.8866C49.451 44.0185 49.7686 44.9178 49.5548 45.8952Z" fill="black"/>
<path d="M50.8258 45.2254L48.8284 45.1685C48.8284 45.1685 50.0522 46.3279 50.5088 46.1578C50.7402 46.0721 50.8258 45.2254 50.8258 45.2254Z" fill="white"/>
<path d="M44.2922 46.2329C44.4029 46.0121 44.6143 45.7126 44.8945 45.3968C46.1471 43.9973 48.7943 42.3119 50.1351 45.9946C50.5604 47.164 50.8893 48.3678 50.9294 48.5142C50.9325 48.5248 50.9337 48.5292 50.9337 48.5292C50.9337 48.5292 51.9637 42.1744 48.3835 41.6716C46.5874 41.4171 44.5743 44.6551 44.2922 46.2329Z" fill="#EC9469"/>
<path d="M44.5408 46.4293C46.42 48.8462 49.3537 48.8181 50.7539 48.5092C50.4994 48.4823 50.2461 48.4529 49.9959 48.4179C49.8096 48.3929 49.6251 48.366 49.44 48.3347C49.3781 48.3253 49.3168 48.3147 49.2555 48.3041C49.1942 48.2934 49.1329 48.2828 49.0716 48.2715C48.9966 48.2584 48.9209 48.2434 48.8471 48.229L48.5907 48.1765C48.4494 48.1458 48.308 48.1152 48.1673 48.0802C48.1392 48.0739 48.1111 48.0671 48.0823 48.0595C47.9991 48.0389 47.9159 48.0176 47.834 47.9945C47.8253 47.9933 47.819 47.9914 47.8115 47.9889C47.7352 47.9689 47.6595 47.9476 47.5845 47.9251C47.5357 47.9113 47.4882 47.897 47.4394 47.8819C47.3869 47.8663 47.3356 47.8488 47.2843 47.8325C47.2218 47.8132 47.1567 47.7919 47.0929 47.7694C47.0241 47.7462 46.9541 47.7225 46.8847 47.6962C46.874 47.6918 46.8615 47.6887 46.8509 47.6843C46.8222 47.6725 46.7934 47.6637 46.7652 47.6512C46.7083 47.6306 46.652 47.6087 46.5964 47.5849C46.4826 47.5405 46.37 47.4924 46.2587 47.4436C46.2018 47.4186 46.1455 47.3935 46.0917 47.3673C46.0379 47.341 45.9823 47.3148 45.9266 47.2885C45.8791 47.2635 45.8315 47.241 45.7828 47.2153C45.7709 47.2103 45.7596 47.2034 45.749 47.1966C45.6458 47.1428 45.5426 47.0865 45.4401 47.029C45.2187 46.9033 45.0042 46.7663 44.7909 46.6169C44.7084 46.5543 44.6227 46.493 44.5408 46.4293Z" fill="#EC9469"/>
<path d="M51.8814 56.3267C51.8727 56.3223 51.8633 56.3129 51.8495 56.3086C51.5337 56.4211 51.1316 56.6156 50.7795 56.625C50.4318 56.6387 50.116 56.3673 49.8539 56.1691C49.393 55.8127 49.393 55.767 48.8602 55.9659C48.5938 56.0609 48.0516 56.2773 47.6501 56.2773C47.203 56.1554 46.9097 56.0741 46.9097 56.0741C46.9097 56.0741 48.9915 59.7499 49.4024 60.6304C49.7364 61.3439 50.2242 61.8404 50.7438 62.1793C50.7482 62.1837 50.7532 62.1881 50.7576 62.1881C50.8977 62.2831 51.0422 62.3601 51.1866 62.4276C52.1259 62.8835 53.0696 62.8929 53.3679 62.7891C54.8082 62.2831 55.9508 60.8742 56.7325 59.5966C57.3422 58.603 57.7306 57.6956 57.8663 57.3566C57.9026 57.2616 57.9207 57.2122 57.9207 57.2122C56.9976 56.9996 54.4505 58.1146 51.8814 56.3267ZM55.8369 58.1327C55.8594 58.1283 55.8776 58.1283 55.9001 58.1283C56.0445 58.1196 56.1753 58.1146 56.2884 58.1058H56.2928C56.3604 58.1014 56.4235 58.0971 56.4779 58.0921C56.4823 58.0921 56.4823 58.0921 56.4867 58.0921C56.5048 58.0921 56.523 58.0877 56.5411 58.0877C56.5186 58.1283 56.3966 58.3722 56.1978 58.7243C55.9901 59.0807 55.7056 59.546 55.3535 60.0381C55.3491 60.0381 55.3491 60.0425 55.3491 60.0425C55.3222 60.0788 55.2947 60.1101 55.2678 60.1463L55.2634 60.1507C55.209 60.2276 55.1553 60.3045 55.0915 60.3808C54.8294 60.7198 53.0821 61.7672 51.4699 61.2838H51.4655C51.393 61.2657 51.3298 61.2432 51.2623 61.2163C51.0772 61.1438 50.8964 61.0537 50.7207 60.9361C50.4724 60.7692 50.2329 60.5522 50.0071 60.277C50.0071 60.277 50.0072 60.2726 50.0028 60.2726C49.6913 59.8843 49.2986 59.2521 48.9096 58.6111C48.5213 57.9607 48.1423 57.2972 47.844 56.8364C48.0066 56.8858 48.1873 56.9358 48.3812 56.9852C48.4218 56.999 48.4668 57.0121 48.5119 57.0258C49.1623 57.2022 49.9477 57.4054 50.7607 57.5949C50.8151 57.6087 50.8602 57.6224 50.914 57.6312C51.1804 57.69 51.438 57.7437 51.6907 57.7938C52.5756 57.9607 53.3704 58.0508 54.0527 58.0964C54.351 58.1189 54.6262 58.1327 54.8788 58.1371H55.0458C55.1772 58.1415 55.2941 58.1415 55.4117 58.1371H55.4161C55.5518 58.1371 55.6687 58.1371 55.7863 58.1327H55.8369Z" fill="#F1644C"/>
<path d="M50.5537 63.3112C50.6675 63.6189 50.8401 63.9491 50.9683 64.268C51.6294 63.4119 52.5787 63.5326 53.5743 63.4344C53.5743 63.4344 51.1635 62.8747 50.5537 63.3112Z" fill="#F48656"/>
<path d="M78.805 50.8487C74.246 27.7776 66.0698 27.6163 59.0087 30.4679C56.0331 31.6692 53.9888 36.8771 53.9888 36.8771C53.9888 36.8771 62.7847 38.0184 64.0942 45.9128C65.0679 51.7792 68.8346 51.5303 67.572 54.2924C64.4745 61.0731 61.7666 67.0171 55.8737 70.0019C56.2051 70.075 63.0392 73.8227 65.3444 72.9154C66.3437 72.5214 67.475 69.1858 67.475 69.1858L67.1949 72.6171C67.1949 72.6171 75.1628 73.1155 78.9945 67.6781C79.9495 66.3229 79.5467 54.6001 78.805 50.8487Z" fill="#3D3D3D"/>
<path d="M55.2278 30.5523C53.8045 30.3465 52.1109 30.5873 50.7195 30.9256C49.8289 31.1414 48.0579 31.9568 47.6908 32.7379L46.3562 35.7114C47.4838 35.0548 49.2198 35.2843 50.4574 35.5544C51.4011 35.7608 52.5055 36.0097 53.2529 36.6369C53.5756 35.4419 54.8001 34.2325 55.6506 33.3714C56.4786 32.5328 57.3147 31.9312 58.2671 31.3221C57.2665 31.0451 56.2753 30.7036 55.2278 30.5523Z" fill="#414142"/>
<path d="M71.0824 51.9705C70.1631 51.3452 68.6997 51.8186 67.9211 52.342C66.7829 53.1093 64.9174 56.3417 65.7811 57.3986C67.1644 59.0901 70.8041 56.7463 71.5721 54.7983C71.8929 53.9854 71.9135 52.5352 71.0824 51.9705Z" fill="#FBA479"/>
<path d="M71.2888 53.891C71.4226 51.4227 67.8549 51.8836 67.3646 53.8303C68.1707 53.5721 68.4878 54.7308 68.135 55.278C67.7436 55.8865 66.7861 55.8064 66.5572 55.1085C66.3777 56.1929 67.9718 56.303 68.5984 55.7952C69.3802 55.1604 69.195 53.8053 68.2839 53.3826C69.2069 52.2144 71.3889 52.9298 71.0968 54.4788L71.2888 53.891Z" fill="#F48656"/>
<path d="M68.7566 104.255C67.6953 104.54 66.6209 104.793 65.5415 105.01C65.5909 104.91 65.6409 104.816 65.6953 104.721C66.0068 104.133 66.3501 103.587 66.7247 103.082L71.7552 97.4509C71.7552 97.4553 71.7552 97.4597 71.7552 97.4597C71.2943 98.4215 70.6984 99.6815 70.0348 101.199C69.714 101.925 69.3801 102.711 69.0323 103.556C68.9373 103.786 68.8472 104.02 68.7566 104.255Z" fill="#DB5290"/>
<path d="M78.7418 100.354C77.703 100.9 76.6418 101.411 75.563 101.876C75.5223 101.894 75.4773 101.912 75.4367 101.93C74.8945 102.165 74.3529 102.386 73.8063 102.598C73.3773 100.354 72.9395 98.0826 72.5012 95.8382C72.4918 95.7794 72.4786 95.725 72.4692 95.6668C72.3792 95.2066 72.2885 94.7501 72.1985 94.2942C72.1803 94.181 72.1578 94.0685 72.1353 93.9509C70.4918 85.5656 68.9021 77.8119 67.9221 73.7709C67.9221 73.7709 70.8933 73.1611 73.9189 74.051C73.9232 74.051 73.9283 74.0554 73.937 74.0554C75.2197 74.435 76.5111 75.0847 77.5905 76.1641C80.1914 78.7649 82.0744 87.7874 83.2895 97.6492C82.6842 98.0601 82.0701 98.4528 81.4472 98.8324C80.7699 99.2432 80.0882 99.6409 79.3922 100.016C79.2027 100.119 79.0082 100.223 78.805 100.323C78.7868 100.331 78.7643 100.344 78.7418 100.354Z" fill="#EA6CA0"/>
<path d="M73.9269 87.94C74.2384 91.34 74.7487 96.4385 75.4353 101.929C74.8931 102.164 74.3515 102.385 73.805 102.598C73.6424 102.656 73.4841 102.72 73.3215 102.778C73.2947 102.792 73.2671 102.801 73.2402 102.81C72.8744 100.99 72.5223 99.1926 72.1833 97.4585V96.5555L72.1877 96.5511C72.1834 95.8013 72.1877 95.0471 72.1965 94.2936C72.2009 94.1172 72.2009 93.9415 72.2053 93.7695C72.2684 90.1075 72.5305 86.4767 73.5554 83.6995C73.5554 83.6995 73.6818 85.3117 73.9257 87.935C73.9269 87.9356 73.9225 87.9356 73.9269 87.94Z" fill="#DB5290"/>
</g>
<defs>
<filter id="filter0_d_5_554" x="0.9" y="0.4" width="111.2" height="111.2" filterUnits="userSpaceOnUse" color-interpolation-filters="sRGB">
<feFlood flood-opacity="0" result="BackgroundImageFix"/>
<feColorMatrix in="SourceAlpha" type="matrix" values="0 0 0 0 0 0 0 0 0 0 0 0 0 0 0 0 0 0 127 0" result="hardAlpha"/>
<feOffset/>
<feGaussianBlur stdDeviation="2.55"/>
<feComposite in2="hardAlpha" operator="out"/>
<feColorMatrix type="matrix" values="0 0 0 0 0 0 0 0 0 0 0 0 0 0 0 0 0 0 0.5 0"/>
<feBlend mode="normal" in2="BackgroundImageFix" result="effect1_dropShadow_5_554"/>
<feBlend mode="normal" in="SourceGraphic" in2="effect1_dropShadow_5_554" result="shape"/>
</filter>
</defs>
</svg>
