<svg width="113" height="111" viewBox="0 0 113 111" fill="none" xmlns="http://www.w3.org/2000/svg">
<g filter="url(#filter0_d_5_624)">
<ellipse cx="56.5" cy="55.5672" rx="50" ry="49.5672" fill="white" stroke="#6F6F6F"/>
<path d="M27.0374 94.419C27.1196 94.4821 27.2067 94.5454 27.2935 94.6038L27.0867 94.3451C27.072 94.3717 27.0527 94.393 27.0374 94.419Z" fill="#D1E3E8"/>
<path d="M26.7253 94.2111C26.8292 94.2889 26.9338 94.3662 27.0423 94.44C27.1245 94.503 27.2117 94.5662 27.2985 94.6245C28.4115 95.4134 29.5586 96.1543 30.7396 96.8481C32.3711 97.8135 34.0635 98.679 35.8145 99.4489C35.9776 99.5207 36.1407 99.5925 36.3088 99.6645C40.3353 101.386 44.6535 102.585 49.1782 103.171C49.1961 103.176 49.2185 103.177 49.241 103.178C49.9684 103.272 50.7009 103.353 51.4391 103.411C51.5744 103.423 51.714 103.435 51.8489 103.442C51.9029 103.45 51.9566 103.453 52.0109 103.456C52.2947 103.476 52.5786 103.496 52.8627 103.511C53.2185 103.531 53.5709 103.546 53.9275 103.552L53.9725 103.554C54.1305 103.563 54.2878 103.572 54.4465 103.567C54.6632 103.579 54.884 103.582 55.1015 103.58C55.8562 103.59 56.6076 103.582 57.3508 103.552C60.8719 103.431 64.3098 102.933 67.6136 102.096C68.7194 101.815 69.8141 101.498 70.8877 101.144C72.7362 100.536 74.5405 99.8223 76.2874 99.0067C77.4352 98.4728 78.5581 97.8921 79.6518 97.2744C81.67 96.1372 83.5974 94.8601 85.423 93.456C85.4702 93.4182 85.5172 93.3847 85.5601 93.3467C85.1618 92.9609 84.7584 92.5793 84.3585 92.2115C84.3544 92.2069 84.3502 92.2023 84.3455 92.1971C83.6064 91.519 75.2298 87.8198 70.8449 85.8049C70.6776 85.7285 70.5142 85.6517 70.3604 85.5804C70.3074 85.5551 70.2593 85.5301 70.206 85.5091L70.2016 85.5089C69.2282 85.0511 68.537 84.717 68.2969 84.5689C67.9214 84.333 67.4723 84.1149 66.9684 83.9118L66.9641 83.9116C65.2014 83.1815 62.8397 82.643 61.1313 82.3108L61.1269 82.3105C60.6435 82.2211 60.2183 82.1436 59.8691 82.084L59.8648 82.0838C59.2823 81.9846 58.9239 81.9331 58.9239 81.9331C58.9239 81.9331 52.5843 81.9165 49.6599 83.2377C49.6227 83.2536 49.5858 83.274 49.5486 83.29C49.4559 83.334 49.3259 83.3947 49.1586 83.4619L49.1542 83.4617C48.4917 83.735 47.2907 84.1808 45.8082 84.7193L45.8038 84.719C44.9863 85.0198 44.0901 85.348 43.1483 85.6868L43.1439 85.6866C43.1067 85.7025 43.0694 85.7185 43.0281 85.7293C43.0238 85.7291 43.0237 85.7291 43.0191 85.7332C42.6909 85.8544 42.3583 85.9754 42.0214 86.0956L42.017 86.0954C38.0638 87.5353 33.6795 89.1531 31.7595 90.0711C31.7551 90.0709 31.7505 90.075 31.7505 90.075C31.3462 90.2685 31.0566 90.4274 30.8962 90.5492C30.5174 90.8424 30.1432 91.1452 29.7683 91.448C29.0612 92.0291 28.3715 92.6243 27.7265 93.2263C27.3777 93.5554 27.0471 93.883 26.7253 94.2111Z" fill="#FCFBFA"/>
<path d="M58.3182 85.9912C49.8999 84.4655 41.3521 85.9254 33.727 89.7196C31.6456 90.7553 29.6449 91.9335 27.7215 93.2285C28.366 92.6238 29.0546 92.0272 29.7654 91.4468C30.1359 91.1431 30.5118 90.8441 30.8919 90.549C34.8212 88.3131 39.0593 86.5706 43.4932 85.6221C48.3874 84.5752 53.4317 84.4981 58.3537 85.3897C58.7325 85.4591 58.7025 86.0602 58.3182 85.9912Z" fill="#D1E3E8"/>
<path d="M51.4453 103.394C51.5799 103.406 51.7189 103.418 51.8532 103.426C51.907 103.433 51.9604 103.436 52.0145 103.439C52.2024 99.9825 52.4521 96.5346 52.8145 93.1016C52.8557 92.6958 52.9012 92.2903 52.9467 91.8848C53.0089 91.3504 53.0749 90.8156 53.1636 90.287C53.1979 90.0784 53.2319 89.8741 53.2754 89.6697C53.3267 89.4036 53.3824 89.1371 53.4467 88.8718C53.5355 88.4954 52.966 88.3025 52.8722 88.6786C52.7727 89.0811 52.6911 89.4847 52.6186 89.893C52.6066 89.9507 52.5942 90.0041 52.5909 90.0617C52.474 90.6918 52.3886 91.3286 52.3161 91.9662C52.1867 93.0576 52.0965 94.1606 52.0037 95.2448C51.9012 96.4098 51.8122 97.5799 51.7276 98.7503L51.7268 98.7639C51.621 100.305 51.5287 101.851 51.4453 103.394Z" fill="#D1E3E8"/>
<path d="M53.4985 91.657C53.5141 91.1466 53.5573 90.7856 53.6174 90.6093L53.1669 90.284L52.7645 89.993L52.6217 89.8908L51.7512 89.2648L51.7254 89.2454L51.6689 89.2063C51.5768 89.5603 51.4873 89.9319 51.3972 90.3264C51.3071 90.7209 51.2201 91.1373 51.127 91.5721C50.4791 94.6856 49.844 98.751 49.2477 103.164C49.9732 103.258 50.7039 103.338 51.4402 103.396C51.5751 103.407 51.7144 103.419 51.8489 103.427C51.9028 103.434 51.9564 103.437 52.0106 103.44C52.2937 103.46 52.5767 103.479 52.8601 103.495C53.2151 103.514 53.5666 103.529 53.9223 103.535C53.5978 98.176 53.4085 93.6928 53.4985 91.657Z" fill="#4C4C4B"/>
<path d="M49.1847 103.154C49.2024 103.159 49.2248 103.161 49.2472 103.162C49.9714 103.256 50.7008 103.336 51.4358 103.394C51.5705 103.405 51.7095 103.417 51.8438 103.425C51.7969 101.803 51.752 100.235 51.7191 98.7625L51.7198 98.7489C51.6575 96.0591 51.6271 93.6803 51.6428 91.8377C51.6489 91.2641 51.6556 90.744 51.6689 90.2826C51.6868 89.8935 51.7018 89.5446 51.7189 89.2449C51.7402 88.9498 51.7641 88.6958 51.7887 88.4953L51.7068 88.4324C51.5564 89.0118 51.4118 89.6542 51.2646 90.3411C51.1846 90.7132 51.1037 91.1038 51.0219 91.5074C50.3885 94.7075 49.7682 98.7773 49.1847 103.154Z" fill="#686868"/>
<path d="M56.3329 87.049C56.2273 88.885 54.3408 92.0834 52.2469 91.9691C51.3668 91.9211 50.5906 91.2957 49.9923 90.4493C49.1703 89.2831 48.6902 87.6986 48.7514 86.6347C48.857 84.7993 50.6398 83.4035 52.7337 83.5177C53.2196 83.5443 53.679 83.6501 54.0979 83.8191C55.4822 84.3807 56.414 85.6399 56.3329 87.049Z" fill="#686868"/>
<path d="M56.333 87.049C56.227 88.8851 54.3407 92.0837 52.2479 91.9699C51.3682 91.922 50.5925 91.2968 49.9947 90.4506C50.1093 90.4469 50.2092 90.4399 50.2902 90.4344C51.0678 90.376 52.7298 90.2724 53.2986 89.6501C53.8118 89.09 53.8726 87.635 53.9585 86.9479C54.0887 85.9063 54.1225 84.8664 54.0996 83.8203C55.4832 84.381 56.4143 85.64 56.333 87.049Z" fill="#4C4C4B"/>
<path d="M70.4301 85.5328L70.8517 85.8251L74.98 88.6728L75.103 89.2942L76.2818 95.4172C76.2588 95.7435 76.2445 96.0702 76.2396 96.3975C76.2171 97.2626 76.2354 98.1386 76.2935 99.0169C77.441 98.4833 78.5636 97.9031 79.657 97.2858C81.6748 96.1494 83.6017 94.8732 85.4268 93.4702C85.474 93.4324 85.5211 93.3989 85.5639 93.3609C85.6825 93.2686 85.8003 93.1806 85.9191 93.084C86.2409 92.8326 86.5586 92.576 86.8715 92.3154C81.8443 88.4984 76.2947 85.8459 70.4301 85.5328Z" fill="#FCFBFA"/>
<path d="M66.4807 88.2387C66.9326 88.2455 67.3844 88.2524 67.8352 88.2772C67.9306 88.2737 68.0161 88.2784 68.1102 88.288L68.1145 88.2882C70.473 88.4043 72.8105 88.7446 75.0992 89.2925C77.0491 89.7639 78.9578 90.3855 80.8223 91.167C82.408 91.8293 83.9421 92.6058 85.4259 93.4741C85.4731 93.4362 85.5201 93.4027 85.563 93.3646C85.6816 93.2722 85.7994 93.1841 85.9183 93.0873C85.406 92.7897 84.8845 92.5002 84.362 92.2288C81.3896 90.6543 78.2425 89.4518 74.9769 88.6703C72.9111 88.1788 70.7945 87.8513 68.6452 87.715C68.5599 87.7059 68.4743 87.7012 68.3882 87.6965C67.7657 87.6622 67.143 87.6416 66.5143 87.6382C66.1262 87.6348 66.0876 88.2351 66.4807 88.2387Z" fill="#D1E3E8"/>
<path d="M56.4431 89.589C54.7015 86.9163 52.3899 85.0039 52.3899 85.0039C52.3899 85.0039 50.292 86.6286 48.5267 89.0813C46.2493 88.5055 44.8715 87.472 45.4573 85.8614C45.7949 84.933 46.2013 83.3102 46.6099 81.3351C46.7711 80.5569 46.9318 79.7239 47.09 78.8578C48.3558 71.902 49.5273 62.82 49.5273 62.82L67.1931 63.2799C67.1931 63.2799 67.0567 64.2783 66.9132 65.8874C66.7973 67.158 66.6782 68.8094 66.6152 70.6492C66.4319 76.0488 65.3554 81.8363 67.7512 85.6282C68.7031 87.1359 61.5322 89.2852 56.4431 89.589Z" fill="#FFB37B"/>
<path d="M66.6121 70.6545C63.1787 74.3379 57.3612 78.3002 53.8484 78.7621C52.5823 78.9283 48.5164 77.3924 47.4529 76.7369C48.7193 69.7776 49.5168 62.822 49.5168 62.822L64.9456 63.6612L66.9101 65.8907C66.7936 67.1617 66.6745 68.8139 66.6121 70.6545Z" fill="#EF9C62"/>
<path d="M41.1402 46.8263C41.8839 46.5791 42.7138 47.0046 43.4584 47.2626C44.2526 47.5382 45.4254 47.947 45.419 48.9366C45.4141 49.7143 45.0233 50.6383 44.8679 51.4153L43.5022 56.1819C43.1187 56.2748 41.9944 56.0644 41.6758 55.7581C41.2577 55.3557 40.3827 50.5522 40.3705 48.6841C40.3646 47.8207 40.1995 47.1393 41.1402 46.8263Z" fill="#FFB884"/>
<path d="M41.2184 47.8608C41.5141 47.2518 42.2472 47.644 42.7855 47.8137C43.3165 47.9812 44.2668 48.1721 44.5911 48.6925C44.9103 49.2052 44.4702 50.475 44.3025 51.0966C42.987 50.444 42.569 52.5868 43.7892 52.7023L43.711 53.0952C43.6057 53.6201 43.4329 54.2539 43.2102 54.5717C43.2919 54.1623 43.5969 53.3823 43.3906 53.0143C43.1894 52.6554 42.5735 52.6175 42.3239 52.2628C41.6724 51.3362 42.8826 50.6825 43.7153 50.6352C43.7466 50.3418 43.9506 49.6432 43.8461 49.3753C43.7264 49.0674 43.1154 48.8663 42.8118 48.7013C42.3579 48.4554 42.083 48.1819 41.7519 48.5473C41.529 48.7937 41.5243 49.3191 41.4665 49.6385C41.3105 49.2112 41.0169 48.2774 41.2184 47.8608Z" fill="#EF9C62"/>
<path d="M68.4184 45.6858C69.281 43.6057 69.5908 41.0245 68.3494 38.7935C68.278 38.6653 68.0795 38.4525 67.7761 38.1806C66.4839 37.0182 63.2672 34.7596 59.6979 33.2486L59.7022 33.2277C59.6853 33.228 59.6683 33.229 59.6508 33.2292C59.6355 33.2228 59.6197 33.2157 59.6044 33.2093L59.6001 33.2302C55.7181 33.3178 51.8813 34.2288 50.2437 34.8316C49.8591 34.9722 49.5943 35.097 49.4801 35.1895C47.4867 36.8027 46.8008 39.3118 46.816 41.5597C46.84 44.9385 40.0857 56.6141 40.5722 62.3261C40.7217 64.0879 44.5984 69.008 46.7311 74.2065C47.1864 75.3163 49.9666 76.2057 51.1882 76.4849C51.2042 76.4889 55.2716 76.7998 56.1832 76.0119C61.2066 71.6702 65.5756 68.8358 66.3794 67.2559C68.9855 62.1341 67.1216 48.8122 68.4184 45.6858Z" fill="#FFB37B"/>
<path d="M68.9634 48.6119C68.4655 50.5287 67.145 54.0249 66.7919 54.2563C66.2747 50.9325 66.1782 37.1014 62.1571 39.8072C59.3552 41.6931 56.6285 45.9194 52.8943 44.26C51.5858 43.677 51.3901 42.9264 50.3445 41.3131C47.608 37.0881 46.7894 44.5298 44.2315 49.1589C44.2315 49.1589 44.0928 47.8231 43.8935 46.2018C43.6476 44.2284 43.3105 41.829 43.0093 40.8799C42.2107 38.3572 40.8334 37.1767 41.1106 34.5198C41.8974 26.9799 43.9987 26.2404 51.5997 24.8649C49.9696 30.928 61.7893 29.3522 64.4329 30.6109C68.2115 32.4115 70.5747 33.8869 71.6305 36.8532C72.6184 39.63 69.9681 44.7447 68.9634 48.6119Z" fill="#3D3D3D"/>
<path d="M66.8011 54.2523C66.2839 50.9276 66.1874 37.0927 62.1654 39.7992C59.363 41.6857 56.6357 45.9131 52.9008 44.2532C51.592 43.6701 51.3963 42.9193 50.3504 41.3055C47.6134 37.0794 46.7946 44.5232 44.2362 49.1535C44.2362 49.1535 44.0974 47.8174 43.8981 46.1955C45.3125 43.8423 45.427 38.355 48.8653 37.8778C50.5561 37.6426 51.5121 38.7862 52.9505 39.4883C54.0601 40.0301 55.6822 39.9435 56.7641 39.4146C58.2859 38.6707 59.8024 37.8121 61.2582 36.9422C63.11 35.8368 64.7104 35.1414 66.3339 36.9172C67.725 38.4378 67.9647 40.9544 68.2234 42.9452C68.392 44.2431 67.1543 54.0208 66.8011 54.2523Z" fill="#323232"/>
<path d="M71.8745 49.4308C71.2168 49.009 70.3052 49.218 69.5186 49.2858C68.6792 49.3582 67.4401 49.4666 67.1959 50.4271C67.0036 51.1817 67.1491 52.1721 67.1035 52.9632L67.221 57.9152C67.5693 58.0989 68.711 58.1703 69.0975 57.9515C69.6048 57.6646 71.6662 53.2259 72.1505 51.4189C72.3738 50.5834 72.7064 49.9639 71.8745 49.4308Z" fill="#FFB884"/>
<path d="M71.5365 50.4132C71.4046 49.751 70.5948 49.9518 70.0304 49.9839C69.4741 50.0157 68.5047 49.9686 68.0595 50.393C67.621 50.811 67.7263 52.1491 67.7311 52.792C69.1705 52.4819 69.0336 54.6601 67.8223 54.473L67.7993 54.8725C67.7685 55.4066 67.7756 56.0632 67.911 56.4254C67.9357 56.0085 67.8373 55.1785 68.13 54.8725C68.4153 54.5742 69.022 54.688 69.3533 54.4059C70.2186 53.6675 69.212 52.7383 68.4175 52.4894C68.4612 52.1978 68.4406 51.4708 68.6091 51.237C68.8034 50.968 69.4455 50.9227 69.7817 50.8379C70.2841 50.7105 70.6187 50.513 70.8474 50.9481C71.0012 51.2411 70.8723 51.7517 70.848 52.0748C71.106 51.6986 71.6266 50.8662 71.5365 50.4132Z" fill="#EF9C62"/>
<path d="M50.3518 50.6755C50.1173 50.4867 47.0472 50.5586 45.8982 50.7157C45.5594 50.762 45.1761 50.753 44.9809 51.0653C44.7872 51.3753 44.5323 51.9949 44.4396 52.3228C44.401 52.4601 44.4067 52.8929 44.4067 52.8929C45.7725 52.6772 47.759 52.2819 49.1539 52.7007C49.7625 52.8831 50.7417 54.3011 50.8396 54.3295C50.8312 54.2158 50.591 50.869 50.3518 50.6755Z" fill="#E89258"/>
<path d="M44.7586 53.9579C44.7586 53.9579 45.288 55.0527 47.5285 55.1743C49.7696 55.2959 50.4188 54.265 50.4188 54.265C50.4188 54.265 50.645 54.3893 50.7079 54.3192C50.7715 54.2486 50.484 54.0569 50.4664 53.8213C50.4493 53.5858 50.0596 51.7212 49.5013 51.5166C48.9424 51.312 45.3889 51.123 44.804 51.886C44.2198 52.6484 44.7586 53.9579 44.7586 53.9579Z" fill="white"/>
<path d="M44.4189 52.5672C44.4481 52.2993 44.5355 52.0339 44.7068 51.8099C44.7313 51.7751 44.7599 51.7455 44.7933 51.72C44.8362 51.6818 44.8835 51.6439 44.9396 51.6152C44.996 51.5822 45.0566 51.55 45.1215 51.5218C45.1959 51.4898 45.2738 51.4629 45.3568 51.4356C45.4165 51.4208 45.4764 51.4017 45.5405 51.3871C45.8336 51.3177 46.166 51.2729 46.5024 51.2457C46.5931 51.237 46.6841 51.2332 46.7747 51.2244C47.4362 51.1931 48.045 51.2168 48.2659 51.2288C48.8605 51.261 49.3491 51.328 49.5441 51.3971C50.0357 51.5762 50.3674 52.7132 50.5106 53.3638C50.5604 53.5955 50.5867 53.7681 50.5929 53.8132C50.5967 53.8987 50.6723 53.9974 50.7359 54.0768C50.7739 54.1237 50.8116 54.1755 50.8307 54.2344L50.8349 54.239L50.8346 54.2433C50.8346 54.2433 50.8346 54.2433 50.8344 54.2477C50.8364 54.2882 50.8398 54.3152 50.8393 54.3245C50.8377 54.3512 50.8271 54.373 50.8031 54.3991C50.7744 54.4293 50.7178 54.4666 50.6323 54.462C50.5736 54.4588 50.5073 54.4372 50.4538 54.4206C50.2355 54.6782 49.4434 55.3995 47.5199 55.2951C45.2358 55.1712 44.6675 54.0575 44.6476 54.011C44.6399 53.9925 44.5805 53.8412 44.5212 53.622C44.4762 53.4577 44.4342 53.2532 44.4151 53.0319L44.4162 53.0139C44.4141 52.9733 44.4167 52.9286 44.4147 52.8881L44.4103 52.8878C44.4103 52.8878 44.4101 52.8156 44.4114 52.7174C44.4119 52.7087 44.4127 52.695 44.4091 52.6812L44.4148 52.5825C44.4137 52.5806 44.414 52.5756 44.4189 52.5672ZM44.656 52.8495C44.6557 52.8539 44.6557 52.8539 44.6557 52.8539C44.6599 53.0202 44.6817 53.1832 44.7096 53.3285C44.7718 53.6599 44.8704 53.9036 44.8749 53.9125C44.8749 53.9125 45.4078 54.9347 47.5341 55.05C49.6653 55.1657 50.3078 54.2073 50.3133 54.1989L50.3779 54.0991L50.4787 54.1537C50.4162 54.065 50.3498 53.9581 50.3439 53.8321C50.3411 53.8052 50.3386 53.7733 50.3315 53.7325C50.308 53.5874 50.2582 53.3557 50.1873 53.0998C50.0233 52.4935 49.7467 51.7366 49.4586 51.6314C49.3212 51.5835 48.8914 51.5154 48.2519 51.4807C48.1259 51.4738 47.9949 51.4667 47.8642 51.464L47.8599 51.4638C47.4086 51.453 46.952 51.4593 46.525 51.4946C45.7441 51.5556 45.1027 51.705 44.9028 51.9593C44.7061 52.21 44.6514 52.5393 44.656 52.8495Z" fill="#E89258"/>
<path d="M48.8465 53.0429C48.7946 53.9346 48.0257 54.6184 47.1292 54.5701C46.2328 54.5217 45.5473 53.7594 45.5992 52.8676C45.6511 51.9753 46.4201 51.2915 47.3171 51.3399C48.2136 51.3883 48.8983 52.1512 48.8465 53.0429Z" fill="#3A2E26"/>
<path d="M47.3329 52.9604C47.3113 53.333 46.9901 53.6185 46.6154 53.5983C46.2407 53.578 45.9553 53.259 45.9769 52.887C45.9985 52.5144 46.319 52.2288 46.6937 52.2491C47.0684 52.2693 47.3545 52.5877 47.3329 52.9604Z" fill="#4C3F35"/>
<path d="M47.562 52.9738C47.5547 53.0996 47.4465 53.1964 47.3199 53.1896C47.1934 53.1827 47.097 53.0749 47.1043 52.949C47.1117 52.8232 47.2198 52.727 47.3464 52.7338C47.4729 52.7407 47.5693 52.8479 47.562 52.9738Z" fill="white"/>
<path opacity="0.1" d="M50.5086 53.369C50.4171 53.2843 50.3096 53.1938 50.186 53.1011C49.6257 52.6795 48.7267 52.2133 47.446 52.1438C45.9432 52.0622 45.1167 52.7804 44.7066 53.3325C44.6291 53.4392 44.5658 53.5379 44.5169 53.6249C44.3926 53.1547 44.2787 52.3631 44.702 51.8105C45.2436 51.1048 47.7633 51.2042 48.2638 51.2314C48.8586 51.2637 49.3495 51.3277 49.5432 51.3993C50.0367 51.5799 50.3647 52.7177 50.5086 53.369Z" fill="black"/>
<path d="M58.5729 51.7807C58.8276 51.6178 61.8703 52.023 62.9941 52.3038C63.3248 52.3865 63.7073 52.4192 63.8653 52.7507C64.0228 53.0798 64.2042 53.7238 64.2593 54.0591C64.2819 54.1997 64.2264 54.6292 64.2264 54.6292C62.894 54.2661 60.9654 53.6583 59.531 53.9232C58.9059 54.0385 57.769 55.3413 57.6685 55.3589C57.6893 55.2468 58.3123 51.947 58.5729 51.7807Z" fill="#E89258"/>
<path d="M63.7562 55.6486C63.7562 55.6486 63.1044 56.6794 60.8633 56.5578C58.6222 56.4362 58.096 55.3415 58.096 55.3415C58.096 55.3415 57.8568 55.4406 57.8024 55.3635C57.7468 55.2871 58.0552 55.1271 58.0999 54.8949C58.144 54.6626 58.7464 52.8518 59.3248 52.709C59.9039 52.5661 63.4569 52.7626 63.9501 53.5841C64.4427 54.405 63.7562 55.6486 63.7562 55.6486Z" fill="white"/>
<path d="M57.6852 55.28C57.6854 55.2756 57.6854 55.2756 57.6854 55.2756L57.6857 55.2713L57.6903 55.2672C57.7162 55.2101 57.7595 55.1633 57.8027 55.1208C57.8744 55.0482 57.9608 54.9632 57.9753 54.8738C57.9866 54.8296 58.0324 54.6659 58.1087 54.4404C58.326 53.8093 58.7824 52.7151 59.2959 52.5905C59.498 52.5386 59.991 52.5293 60.5856 52.5615C61.086 52.5887 63.602 52.7613 64.0551 53.5183C64.1333 53.6483 64.1842 53.7861 64.2164 53.9316C64.2233 53.9637 64.2307 53.9996 64.2329 54.0358C64.2396 54.0723 64.2425 54.1079 64.2448 54.1441C64.2521 54.1806 64.2544 54.2168 64.2524 54.2522C64.2546 54.2884 64.2526 54.3244 64.2505 54.3598C64.2461 54.4361 64.242 54.5074 64.2347 54.5568C64.2278 54.6012 64.2262 54.6285 64.2262 54.6285L64.2218 54.6283C64.2136 54.6951 64.2003 54.7622 64.188 54.8244C64.1755 54.8778 64.1639 54.9264 64.152 54.9799C64.1174 55.113 64.074 55.2364 64.0316 55.3418C63.9465 55.5575 63.8709 55.6971 63.8611 55.7146C63.836 55.7581 63.1425 56.8083 60.8584 56.6844C58.9349 56.58 58.2312 55.7732 58.0396 55.4934C57.9893 55.5087 57.9202 55.523 57.8616 55.5198C57.7717 55.5149 57.7241 55.4719 57.6991 55.4388C57.6782 55.4109 57.6702 55.3881 57.672 55.3564C57.672 55.3465 57.6785 55.3201 57.6852 55.28ZM58.2087 55.286C58.2125 55.2949 58.7411 56.3168 60.8717 56.4324C62.998 56.5478 63.6455 55.5897 63.6455 55.5897C63.6501 55.5856 63.7768 55.3541 63.8768 55.0315C63.9213 54.8902 63.9618 54.7306 63.9854 54.5613C64.0257 54.2536 64.0087 53.9197 63.8443 53.6457C63.5843 53.2184 62.2355 52.9386 60.9586 52.8332C60.9586 52.8332 60.9542 52.8329 60.9498 52.8327C60.824 52.8215 60.693 52.8144 60.5714 52.8078C60.2332 52.7895 59.9535 52.788 59.7404 52.7945C59.5547 52.8025 59.4232 52.8134 59.3539 52.832C59.0561 52.9055 58.6936 53.6233 58.4607 54.2081C58.3605 54.4584 58.2842 54.6839 58.2441 54.8255C58.233 54.8654 58.2262 54.8967 58.2206 54.9188C58.1996 55.0434 58.1218 55.1425 58.0486 55.2288L58.1553 55.1804L58.2087 55.286Z" fill="#E89258"/>
<path d="M58.6686 54.227C58.6167 55.1194 59.3015 55.8816 60.1985 55.93C61.095 55.9784 61.8639 55.2946 61.9158 54.4022C61.9677 53.5105 61.2829 52.7476 60.3864 52.6993C59.4894 52.6508 58.7204 53.3353 58.6686 54.227Z" fill="#3A2E26"/>
<path d="M59.2028 54.255C59.1812 54.6277 59.4673 54.9461 59.842 54.9663C60.2167 54.9866 60.5379 54.7011 60.5595 54.3284C60.5811 53.9558 60.295 53.6374 59.9203 53.6171C59.5456 53.5969 59.2244 53.8824 59.2028 54.255Z" fill="#4C3F35"/>
<path d="M60.2899 54.357C60.2826 54.4829 60.3789 54.5907 60.5055 54.5976C60.632 54.6044 60.7402 54.5083 60.7475 54.3818C60.7548 54.2559 60.6585 54.1487 60.5319 54.1418C60.4054 54.135 60.2972 54.2312 60.2899 54.357Z" fill="white"/>
<path opacity="0.1" d="M58.1074 54.441C58.2081 54.3667 58.326 54.2884 58.4588 54.2097C59.0636 53.8514 60.0112 53.4856 61.2919 53.5553C62.7946 53.6371 63.5333 54.441 63.8773 55.0334C63.942 55.1478 63.9936 55.2527 64.0321 55.3445C64.2098 54.8907 64.4147 54.1164 64.0572 53.5214C63.6001 52.7621 61.0841 52.5878 60.5842 52.5606C59.9889 52.5282 59.4943 52.5387 59.293 52.5888C58.7824 52.7143 58.3248 53.8087 58.1074 54.441Z" fill="black"/>
<path d="M51.4656 50.4325C50.0292 49.7003 46.4987 49.5461 45.438 49.5163C45.2424 49.5119 45.1317 49.5096 45.1317 49.5096C45.2724 49.3044 45.4904 48.4674 45.7644 48.1992C46.0662 47.9044 46.718 47.7731 47.1382 47.6616C48.326 47.341 49.6747 47.097 50.8709 46.9474C51.1683 47.6096 51.2385 48.3465 51.3016 49.075C51.3419 49.5383 51.3779 49.9983 51.4656 50.4325Z" fill="#874410"/>
<path d="M51.4661 50.4325C50.0296 49.6996 46.4987 49.546 45.4379 49.5165C45.8294 49.4168 46.2169 49.3518 46.476 49.2992C47.1999 49.1559 48.1225 48.8357 48.8583 48.8981C48.9426 48.6209 48.9751 48.3391 49.0658 48.0711C49.293 48.3632 49.4831 48.6827 49.6745 48.9985C49.7219 48.6994 49.7915 48.3735 49.971 48.17C50.1829 48.4894 50.3433 48.8235 50.4881 49.1772C50.4921 49.1089 50.5511 48.9656 50.5618 48.8777C50.7982 48.8824 51.0498 48.9584 51.3018 49.0724C51.3426 49.5371 51.3785 49.9977 51.4661 50.4325Z" fill="#6D340D"/>
<path d="M58.1638 49.4002C59.6749 48.8277 63.2017 49.0576 64.259 49.1438C64.454 49.16 64.5642 49.1704 64.5642 49.1704C64.4479 48.9512 64.327 48.0957 64.0855 47.7994C63.8195 47.4738 63.1869 47.2726 62.7821 47.1161C61.6386 46.668 60.3264 46.2798 59.1549 46.0014C58.7832 46.6277 58.6288 47.3518 58.4823 48.0689C58.3896 48.525 58.3009 48.9782 58.1638 49.4002Z" fill="#874410"/>
<path d="M58.1637 49.4008C59.675 48.8272 63.2023 49.0566 64.2597 49.1426C63.8823 49.0012 63.5046 48.8947 63.2526 48.8144C62.5503 48.5937 61.6699 48.1757 60.9315 48.1574C60.8791 47.8729 60.8798 47.59 60.8207 47.3131C60.5612 47.5789 60.3361 47.8758 60.1087 48.1695C60.0962 47.8672 60.0647 47.5358 59.9097 47.3142C59.6623 47.6087 59.4644 47.9232 59.2796 48.2591C59.2836 48.1908 59.2415 48.042 59.2404 47.9535C59.0055 47.9326 58.746 47.9809 58.4824 48.0675C58.3897 48.5243 58.3008 48.9782 58.1637 49.4008Z" fill="#6D340D"/>
<path d="M54.8982 63.4035C53.5954 63.3597 47.5984 65.1311 50.7198 60.5415C51.4027 59.5368 52.1328 55.3628 52.088 54.0332C52.0571 53.1337 52.2469 52.1593 52.1118 51.2802C52.1118 51.2802 51.5977 56.4073 50.6068 58.4955C50.0939 59.576 49.5573 60.6358 48.9569 61.6736C48.6501 62.2042 48.5159 62.3411 48.7357 62.9216C49.4615 64.8364 52.4737 65.3973 53.968 64.2847C54.1965 64.5171 54.536 64.6686 54.8309 64.8345C55.2058 64.4908 55.1266 63.8136 54.8982 63.4035Z" fill="#EF9C62"/>
<path d="M55.0117 72.2172C54.3259 72.4275 53.6355 72.5753 52.9375 72.5932C52.3785 72.6548 51.8108 72.6288 51.2276 72.4363C51.2209 72.4335 51.2168 72.4295 51.2101 72.426C51.4009 72.7341 51.6752 73.0379 51.9926 73.2893C52.3252 73.409 52.6679 73.4812 52.8365 73.5116C53.4301 73.6206 53.9581 73.434 54.4185 73.1143C54.6275 72.8225 54.8287 72.5247 55.0117 72.2172Z" fill="#EF9C62"/>
<path d="M60.5801 65.3914C60.0319 65.8092 59.6172 66.3794 59.2407 67.0239C58.8973 67.6154 58.6212 68.2448 58.3212 68.8555C57.9373 69.6378 57.3602 69.9501 56.7003 70.1028C55.8357 70.1448 54.9694 70.2726 54.1137 70.3661C53.0092 70.4877 51.6952 70.8433 50.6122 70.4382C49.9241 69.9387 49.5191 68.9808 49.0069 68.2543C48.5242 67.5692 47.8509 66.7605 47.0461 66.3729C49.3438 66.4395 51.5459 66.3291 52.3533 66.269C54.6791 66.0981 56.9397 65.9279 59.2495 65.5786C59.6308 65.5246 60.1105 65.4785 60.5801 65.3914Z" fill="#60120F"/>
<path d="M61.3877 64.5673C60.6756 65.0796 59.9798 66.3505 59.5981 67.0172C59.5889 67.0348 59.578 67.0504 59.5707 67.068L59.5706 67.0699C59.4854 67.2223 59.4013 67.3785 59.3214 67.5369C59.1598 67.5698 58.9784 67.8797 58.8099 68.1423C58.6899 68.3327 58.5731 68.5015 58.481 68.5245C57.7108 68.7102 57.1186 68.7847 56.3314 68.8866C54.6727 69.1082 53.3405 69.269 51.6741 69.1369C50.8196 69.0706 50.0476 68.4878 49.4023 67.8035L49.4005 67.8015C48.9594 67.3314 48.5769 66.8121 48.2672 66.3765C48.2109 66.2993 48.1588 66.2261 48.1085 66.1548C48.3885 66.1637 48.6715 66.1629 48.9525 66.1544C51.407 66.2452 53.9741 65.9581 56.3412 65.7531C57.2323 65.6749 58.1249 65.5682 59.01 65.4192C59.7191 65.3374 60.6728 64.6737 61.3877 64.5673Z" fill="white"/>
<path d="M51.4616 68.3808C50.979 68.2359 48.6575 66.8047 48.3019 66.2824L48.2669 66.3691C48.5768 66.8047 48.9595 67.3248 49.4007 67.7962L49.4024 67.7982C50.048 68.4836 50.8202 69.0673 51.6749 69.1338C53.3418 69.2669 54.6743 69.1054 56.3334 68.8836C57.1208 68.7817 57.7132 68.7072 58.4835 68.5213C58.5756 68.4982 58.6925 68.3292 58.8124 68.1385C58.981 67.8756 59.163 67.5654 59.324 67.5323C59.4039 67.3738 59.4875 67.2173 59.5733 67.0647C58.2833 67.4108 52.0218 68.5498 51.4616 68.3808Z" fill="#3A2210"/>
<path d="M45.9229 65.6317C46.127 65.4585 46.3541 65.3631 46.5972 65.3041C46.521 65.3672 46.4496 65.4312 46.369 65.4941C46.2171 65.621 46.3013 65.8858 46.4839 65.9318C47.0053 66.0635 47.553 66.1293 48.1077 66.1501C48.3875 66.1609 48.6725 66.1584 48.9527 66.1512C48.9891 66.1488 49.0253 66.1507 49.0568 66.1481C49.0705 66.1488 49.0793 66.1493 49.0883 66.1454C59.7479 65.8158 60.6932 64.2446 61.0616 63.9676C60.8981 63.7427 60.5125 63.614 60.2831 63.5206C60.7505 63.5684 61.3077 63.4686 61.604 63.9746C61.8018 64.2998 61.6811 64.7522 61.5283 65.0452C61.5491 64.8483 61.4857 64.688 61.3843 64.5698C60.6725 65.0797 59.9793 66.3502 59.5977 67.0175C59.5873 67.035 59.5775 67.0525 59.5677 67.07C59.4822 67.2185 59.4011 67.376 59.3194 67.5328C59.1865 67.7952 59.0584 68.0628 58.9252 68.3296C58.6901 68.8024 58.4412 69.2746 58.1352 69.7162C57.8644 70.1019 57.5226 70.1462 57.009 70.2802C56.3494 70.5052 54.6887 70.6984 52.8004 70.8337C51.6665 70.9788 50.4953 71.14 49.8641 70.2558C49.5549 69.8213 49.1762 69.2472 48.7394 68.6706C48.7265 68.6562 48.7188 68.6377 48.7015 68.6237C47.8785 67.5361 46.8559 66.4601 45.7146 66.3439C45.6645 66.3549 45.6226 66.3751 45.5803 66.4039C45.6233 66.1148 45.7296 65.846 45.9229 65.6317ZM47.2651 66.496C47.3396 66.5405 47.4131 66.5893 47.4829 66.6379C47.5263 66.6671 47.5696 66.6968 47.6134 66.7303C47.8084 66.876 47.9885 67.0427 48.1592 67.2188C48.2359 67.2996 48.3127 67.3797 48.3847 67.4646C48.453 67.5399 48.5203 67.6201 48.5833 67.7001C48.6593 67.7939 48.7311 67.8837 48.7977 67.977C48.8062 67.9818 48.8109 67.9864 48.8147 67.996C48.8232 68.0008 48.8277 68.0104 48.8316 68.0193C48.8945 68.0993 48.9532 68.1785 49.0074 68.258C49.5171 68.9824 49.9224 69.9396 50.6128 70.4403C51.6924 70.8451 53.0056 70.4893 54.1112 70.3694C54.9663 70.272 55.8331 70.1441 56.6986 70.1052C57.3585 69.9524 57.937 69.6376 58.3213 68.8578C58.3774 68.7437 58.4294 68.6345 58.4811 68.5203L58.4854 68.5205L58.4857 68.5161C58.6973 68.06 58.9131 67.6085 59.1602 67.168C59.1855 67.1202 59.2108 67.0718 59.2405 67.0242C59.5317 66.5232 59.8721 65.9527 60.2581 65.4476L60.2583 65.4432C60.3664 65.2959 60.4826 65.1584 60.5986 65.0252C60.3168 65.2123 59.1099 65.5247 57.4838 65.8137C57.4698 65.8173 57.4611 65.8168 57.4471 65.821C55.0033 66.2637 51.626 66.6649 49.0276 66.578L48.9957 66.5763C48.8469 66.5725 48.7028 66.5647 48.563 66.5571C48.5044 66.5539 48.4457 66.5508 48.3873 66.5432C47.9008 66.5124 47.4477 66.4561 47.0455 66.3757C47.1204 66.4115 47.1951 66.4517 47.2651 66.496Z" fill="#EF9C62"/>
<path d="M70.4012 85.7679C70.4012 85.7679 57.064 100.676 57.5064 97.327C57.7968 95.1315 57.6699 91.4283 56.4633 89.5796C54.7193 86.9066 52.4054 84.9936 52.4054 84.9936L64.8535 81.1854L66.1932 80.6465L70.4012 85.7679Z" fill="#D1E3E8"/>
<path d="M70.4153 85.5223C70.4153 85.5223 57.8714 99.1874 58.3138 95.8379C58.6042 93.6423 57.6701 91.43 56.4628 89.5813C54.7189 86.9083 52.4049 84.9952 52.4049 84.9952L64.9129 80.1453L66.2526 79.6065L70.4153 85.5223Z" fill="white"/>
<path d="M52.3932 84.9824C52.3932 84.9824 50.6081 86.2461 48.5826 89.4677C47.5678 91.0811 46.9894 94.1751 46.1084 95.9978C45.5583 97.1359 42.2156 86.6328 42.2156 86.6328L46.5425 82.2447L46.5551 82.2529L52.3932 84.9824Z" fill="#D1E3E8"/>
<path d="M52.393 84.9829C52.393 84.9829 50.2951 86.606 48.5301 89.0571C47.414 90.6036 46.431 92.4805 46.1914 94.4869C45.9045 96.8953 41.9792 85.9878 41.9792 85.9878L46.5965 81.3054L46.6092 81.3136L52.393 84.9829Z" fill="white"/>
</g>
<defs>
<filter id="filter0_d_5_624" x="0.9" y="0.4" width="111.2" height="110.334" filterUnits="userSpaceOnUse" color-interpolation-filters="sRGB">
<feFlood flood-opacity="0" result="BackgroundImageFix"/>
<feColorMatrix in="SourceAlpha" type="matrix" values="0 0 0 0 0 0 0 0 0 0 0 0 0 0 0 0 0 0 127 0" result="hardAlpha"/>
<feOffset/>
<feGaussianBlur stdDeviation="2.55"/>
<feComposite in2="hardAlpha" operator="out"/>
<feColorMatrix type="matrix" values="0 0 0 0 0 0 0 0 0 0 0 0 0 0 0 0 0 0 0.5 0"/>
<feBlend mode="normal" in2="BackgroundImageFix" result="effect1_dropShadow_5_624"/>
<feBlend mode="normal" in="SourceGraphic" in2="effect1_dropShadow_5_624" result="shape"/>
</filter>
</defs>
</svg>
